<svg width="75" height="75" viewBox="0 0 75 75" fill="none" xmlns="http://www.w3.org/2000/svg">
<path d="M56.25 56.25C58.7123 53.7877 60.6655 50.8646 61.9981 47.6474C63.3306 44.4303 64.0165 40.9822 64.0165 37.5C64.0165 34.0178 63.3306 30.5697 61.9981 27.3526C60.6655 24.1354 58.7123 21.2123 56.25 18.75C53.7877 16.2877 50.8646 14.3345 47.6474 13.0019C44.4303 11.6694 40.9822 10.9835 37.5 10.9835C34.0178 10.9835 30.5697 11.6694 27.3526 13.0019C24.1354 14.3345 21.2123 16.2877 18.75 18.75C13.7772 23.7228 10.9835 30.4674 10.9835 37.5C10.9835 44.5326 13.7772 51.2772 18.75 56.25C23.7228 61.2228 30.4674 64.0165 37.5 64.0165C44.5326 64.0165 51.2772 61.2228 56.25 56.25Z" stroke="#F2F2F2" stroke-width="5" stroke-linecap="round" stroke-linejoin="round"/>
<path d="M49.9999 37.5002L37.4999 50.0002" stroke="#F2F2F2" stroke-width="5" stroke-linecap="round" stroke-linejoin="round"/>
<path d="M37.5 25L50 37.5H25" stroke="#F2F2F2" stroke-width="5" stroke-linecap="round" stroke-linejoin="round"/>
</svg>
