<svg width="43" height="60" viewBox="0 0 43 60" fill="none" xmlns="http://www.w3.org/2000/svg">
<path d="M21.5 0L27.7895 3.24064L34.7919 4.30001L37.9633 10.6L43 15.5501L41.8476 22.5001L43 29.4532L37.9633 34.4032L34.7919 40.7033L27.7895 41.7626L21.5 45.0001L15.2105 41.7626L8.20812 40.7033L5.03666 34.4032L0 29.4532L1.1524 22.5001L0 15.5501L5.03666 10.6L8.20812 4.30001L15.2105 3.24064L21.5 0Z" fill="#684208"/>
<path d="M18.376 18.326C18.1 18.326 17.86 18.224 17.656 18.02C17.452 17.816 17.35 17.576 17.35 17.3V16.886C17.35 16.61 17.452 16.37 17.656 16.166C17.86 15.962 18.1 15.86 18.376 15.86H25.09C25.366 15.86 25.606 15.962 25.81 16.166C26.014 16.37 26.116 16.61 26.116 16.886V17.3C26.116 17.984 25.852 18.542 25.324 18.974L22.606 21.224V21.242C22.606 21.254 22.612 21.26 22.624 21.26H22.84C23.884 21.26 24.718 21.584 25.342 22.232C25.978 22.88 26.296 23.756 26.296 24.86C26.296 26.252 25.87 27.32 25.018 28.064C24.166 28.808 22.942 29.18 21.346 29.18C20.386 29.18 19.414 29.066 18.43 28.838C18.142 28.766 17.902 28.61 17.71 28.37C17.53 28.118 17.44 27.836 17.44 27.524V26.912C17.44 26.672 17.536 26.486 17.728 26.354C17.932 26.21 18.154 26.174 18.394 26.246C19.426 26.582 20.326 26.75 21.094 26.75C21.79 26.75 22.33 26.588 22.714 26.264C23.098 25.94 23.29 25.49 23.29 24.914C23.29 24.326 23.068 23.912 22.624 23.672C22.18 23.432 21.352 23.306 20.14 23.294C19.864 23.294 19.624 23.198 19.42 23.006C19.216 22.802 19.114 22.562 19.114 22.286V22.25C19.114 21.578 19.372 21.02 19.888 20.576L22.444 18.362V18.344C22.444 18.332 22.438 18.326 22.426 18.326H18.376Z" fill="white"/>
<path d="M6.42773 44.2312V60L21.5 56.2499L36.5723 60V44.228L28.9671 45.3749L21.5 49.2218L14.0298 45.3749L6.42773 44.228V44.2312Z" fill="#684208"/>
</svg>
