<svg width="384" height="384" viewBox="0 0 384 384" fill="none" xmlns="http://www.w3.org/2000/svg">
<line x1="1.5" y1="-1.5" x2="258.472" y2="-1.5" transform="matrix(0.707183 -0.70703 0.707183 0.70703 48 231.808)" stroke="#F2F2F2" stroke-width="3" stroke-linecap="round"/>
<path d="M49.5 230.032C49.5 229.203 48.8284 228.532 48 228.532C47.1716 228.532 46.5 229.203 46.5 230.032L49.5 230.032ZM48 368C43.5817 368 40 371.582 40 376C40 380.418 43.5817 384 48 384C52.4183 384 56 380.418 56 376C56 371.582 52.4183 368 48 368ZM46.5 230.032L46.5 376L49.5 376L49.5 230.032L46.5 230.032Z" fill="#F2F2F2"/>
<path d="M230 46.5709C229.172 46.5709 228.5 47.2425 228.5 48.0709C228.5 48.8993 229.172 49.5709 230 49.5709V46.5709ZM368 48.0709C368 52.4892 371.582 56.0709 376 56.0709C380.418 56.0709 384 52.4892 384 48.0709C384 43.6526 380.418 40.0709 376 40.0709C371.582 40.0709 368 43.6526 368 48.0709ZM230 49.5709L376 49.5709V46.5709L230 46.5709V49.5709Z" fill="#F2F2F2"/>
<line x1="1.5" y1="-1.5" x2="268.5" y2="-1.5" transform="matrix(0.707183 -0.70703 0.707183 0.70703 28 218.808)" stroke="#F2F2F2" stroke-width="3" stroke-linecap="round"/>
<path d="M29.5 217C29.5 216.172 28.8284 215.5 28 215.5C27.1716 215.5 26.5 216.172 26.5 217L29.5 217ZM28 329C23.5817 329 20 332.582 20 337C20 341.418 23.5817 345 28 345C32.4183 345 36 341.418 36 337C36 332.582 32.4183 329 28 329ZM26.5 217L26.5 337L29.5 337L29.5 217L26.5 217Z" fill="#F2F2F2"/>
<path d="M217 26.5C216.172 26.5 215.5 27.1716 215.5 28C215.5 28.8284 216.172 29.5 217 29.5V26.5ZM295 28C295 32.4183 298.582 36 303 36C307.418 36 311 32.4183 311 28C311 23.5817 307.418 20 303 20C298.582 20 295 23.5817 295 28ZM217 29.5L303 29.5V26.5L217 26.5V29.5Z" fill="#F2F2F2"/>
<line x1="1.5" y1="-1.5" x2="278.5" y2="-1.5" transform="matrix(0.707183 -0.70703 0.707183 0.70703 8.00003 205.898)" stroke="#F2F2F2" stroke-width="3" stroke-linecap="round"/>
<path d="M9.5 204C9.5 203.172 8.82843 202.5 8 202.5C7.17157 202.5 6.5 203.172 6.5 204L9.5 204ZM8 300C3.58172 300 -4.3538e-06 303.582 -4.54697e-06 308C-4.74014e-06 312.418 3.58172 316 8 316C12.4183 316 16 312.418 16 308C16 303.582 12.4183 300 8 300ZM6.5 204L6.5 308L9.5 308L9.5 204L6.5 204Z" fill="#F2F2F2"/>
<path d="M204 6.5C203.172 6.5 202.5 7.17157 202.5 8C202.5 8.82843 203.172 9.5 204 9.5V6.5ZM339 8C339 12.4183 342.582 16 347 16C351.418 16 355 12.4183 355 8C355 3.58172 351.418 0 347 0C342.582 0 339 3.58172 339 8ZM204 9.5L347 9.5V6.5L204 6.5V9.5Z" fill="#F2F2F2"/>
</svg>
