<svg width="55" height="41" viewBox="0 0 55 41" fill="none" xmlns="http://www.w3.org/2000/svg">
<path d="M53.0725 19.3505C50.6631 8.4549 47.0369 2.63987 41.6557 1.05219C40.5246 0.720386 39.3513 0.554636 38.1725 0.56013C36.6164 0.56013 35.259 0.940688 33.824 1.34306C32.0957 1.82785 30.1299 2.37809 27.2648 2.37809C24.4021 2.37809 22.4363 1.82785 20.7032 1.34306C19.2658 0.940688 17.9084 0.56013 16.3571 0.56013C15.1386 0.556366 13.9255 0.72197 12.7527 1.05219C7.40062 2.6326 3.77683 8.44521 1.33107 19.3432C-1.2989 31.0727 -0.00209204 38.4778 4.95971 40.1964C5.64084 40.4339 6.3559 40.56 7.07824 40.56C10.479 40.56 13.206 37.7288 15.07 35.4091C17.1739 32.784 19.6391 31.4533 27.2648 31.4533C34.0761 31.4533 36.8951 32.3768 39.3312 35.4091C40.8607 37.3168 42.3078 38.6499 43.75 39.4886C45.6698 40.6036 47.5871 40.8533 49.4511 40.2134C52.3841 39.2123 54.0663 36.5653 54.4493 32.3453C54.7402 29.1093 54.2917 24.8601 53.0725 19.3529V19.3505ZM21.8109 18.7397H18.175V22.3756C18.175 22.8577 17.9835 23.3201 17.6426 23.6611C17.3016 24.002 16.8392 24.1935 16.3571 24.1935C15.8749 24.1935 15.4125 24.002 15.0716 23.6611C14.7307 23.3201 14.5391 22.8577 14.5391 22.3756V18.7397H10.9032C10.4211 18.7397 9.95866 18.5481 9.61773 18.2072C9.27679 17.8663 9.08526 17.4039 9.08526 16.9217C9.08526 16.4396 9.27679 15.9772 9.61773 15.6362C9.95866 15.2953 10.4211 15.1038 10.9032 15.1038H14.5391V11.4679C14.5391 10.9857 14.7307 10.5233 15.0716 10.1824C15.4125 9.84144 15.8749 9.64991 16.3571 9.64991C16.8392 9.64991 17.3016 9.84144 17.6426 10.1824C17.9835 10.5233 18.175 10.9857 18.175 11.4679V15.1038H21.8109C22.2931 15.1038 22.7555 15.2953 23.0964 15.6362C23.4374 15.9772 23.6289 16.4396 23.6289 16.9217C23.6289 17.4039 23.4374 17.8663 23.0964 18.2072C22.7555 18.5481 22.2931 18.7397 21.8109 18.7397ZM31.3564 19.1954C31.0578 19.1954 30.7622 19.1366 30.4863 19.0223C30.2105 18.908 29.9598 18.7406 29.7487 18.5294C29.5376 18.3183 29.3701 18.0677 29.2558 17.7918C29.1416 17.516 29.0828 17.2203 29.0828 16.9217C29.0828 16.6231 29.1416 16.3275 29.2558 16.0516C29.3701 15.7758 29.5376 15.5251 29.7487 15.314C29.9598 15.1029 30.2105 14.9354 30.4863 14.8211C30.7622 14.7069 31.0578 14.6481 31.3564 14.6481C31.9594 14.6481 32.5377 14.8876 32.9641 15.314C33.3905 15.7404 33.6301 16.3187 33.6301 16.9217C33.6301 17.5247 33.3905 18.1031 32.9641 18.5294C32.5377 18.9558 31.9594 19.1954 31.3564 19.1954ZM36.3546 24.1935C35.7519 24.1935 35.1739 23.9541 34.7477 23.528C34.3216 23.1018 34.0821 22.5238 34.0821 21.9211C34.0821 21.3184 34.3216 20.7404 34.7477 20.3142C35.1739 19.8881 35.7519 19.6487 36.3546 19.6487C36.9573 19.6487 37.5353 19.8881 37.9614 20.3142C38.3876 20.7404 38.627 21.3184 38.627 21.9211C38.627 22.5238 38.3876 23.1018 37.9614 23.528C37.5353 23.9541 36.9573 24.1935 36.3546 24.1935ZM36.3546 14.1948C35.7519 14.1948 35.1739 13.9554 34.7477 13.5292C34.3216 13.103 34.0821 12.525 34.0821 11.9224C34.0821 11.3197 34.3216 10.7417 34.7477 10.3155C35.1739 9.88932 35.7519 9.64991 36.3546 9.64991C36.9573 9.64991 37.5353 9.88932 37.9614 10.3155C38.3876 10.7417 38.627 11.3197 38.627 11.9224C38.627 12.525 38.3876 13.103 37.9614 13.5292C37.5353 13.9554 36.9573 14.1948 36.3546 14.1948ZM41.3552 19.1954C41.0566 19.1954 40.7609 19.1366 40.4851 19.0223C40.2092 18.908 39.9586 18.7406 39.7475 18.5294C39.5363 18.3183 39.3689 18.0677 39.2546 17.7918C39.1403 17.516 39.0815 17.2203 39.0815 16.9217C39.0815 16.6231 39.1403 16.3275 39.2546 16.0516C39.3689 15.7758 39.5363 15.5251 39.7475 15.314C39.9586 15.1029 40.2092 14.9354 40.4851 14.8211C40.7609 14.7069 41.0566 14.6481 41.3552 14.6481C41.9582 14.6481 42.5365 14.8876 42.9629 15.314C43.3893 15.7404 43.6288 16.3187 43.6288 16.9217C43.6288 17.5247 43.3893 18.1031 42.9629 18.5294C42.5365 18.9558 41.9582 19.1954 41.3552 19.1954Z" fill="#0583F2"/>
</svg>
