<svg width="420" height="270" viewBox="0 0 420 270" fill="none" xmlns="http://www.w3.org/2000/svg">
<mask id="path-1-inside-1_238_725" fill="white">
<path fill-rule="evenodd" clip-rule="evenodd" d="M15 270C6.71573 270 0 263.284 0 255V54.7056C0 50.7273 1.58035 46.912 4.3934 44.099L44.099 4.3934C46.912 1.58035 50.7273 0 54.7056 0H405C413.284 0 420 6.71573 420 15V217.284C420 221.263 418.42 225.078 415.607 227.891L377.891 265.607C375.078 268.42 371.263 270 367.284 270H15Z"/>
</mask>
<path fill-rule="evenodd" clip-rule="evenodd" d="M15 270C6.71573 270 0 263.284 0 255V54.7056C0 50.7273 1.58035 46.912 4.3934 44.099L44.099 4.3934C46.912 1.58035 50.7273 0 54.7056 0H405C413.284 0 420 6.71573 420 15V217.284C420 221.263 418.42 225.078 415.607 227.891L377.891 265.607C375.078 268.42 371.263 270 367.284 270H15Z" fill="#020202"/>
<path d="M377.891 265.607L380.012 267.728L377.891 265.607ZM415.607 227.891L413.485 225.77L415.607 227.891ZM-3 54.7056V255H3V54.7056H-3ZM41.9777 2.27208L2.27208 41.9777L6.51472 46.2203L46.2203 6.51472L41.9777 2.27208ZM405 -3H54.7056V3H405V-3ZM423 217.284V15H417V217.284H423ZM380.012 267.728L417.728 230.012L413.485 225.77L375.77 263.485L380.012 267.728ZM15 273H367.284V267H15V273ZM375.77 263.485C373.519 265.736 370.467 267 367.284 267V273C372.058 273 376.637 271.104 380.012 267.728L375.77 263.485ZM417 217.284C417 220.467 415.736 223.519 413.485 225.77L417.728 230.012C421.104 226.637 423 222.058 423 217.284H417ZM405 3C411.627 3 417 8.37258 417 15H423C423 5.05887 414.941 -3 405 -3V3ZM46.2203 6.51472C48.4707 4.26428 51.523 3 54.7056 3V-3C49.9317 -3 45.3533 -1.10358 41.9777 2.27208L46.2203 6.51472ZM-3 255C-3 264.941 5.05888 273 15 273V267C8.37258 267 3 261.627 3 255H-3ZM3 54.7056C3 51.523 4.26428 48.4707 6.51472 46.2203L2.27208 41.9777C-1.10358 45.3533 -3 49.9317 -3 54.7056H3Z" fill="#0583F2" mask="url(#path-1-inside-1_238_725)"/>
</svg>
