<svg width="650" height="270" viewBox="0 0 650 270" fill="none" xmlns="http://www.w3.org/2000/svg">
<mask id="path-1-inside-1_238_688" fill="white">
<path fill-rule="evenodd" clip-rule="evenodd" d="M4.39339 56.5254C1.58035 59.3385 0 63.1538 0 67.132V255C0 263.284 6.71573 270 15 270H581.426C585.405 270 589.22 268.42 592.033 265.607L645.607 212.033C648.42 209.22 650 205.405 650 201.426V15C650 6.71572 643.284 0 635 0H67.132C63.1538 0 59.3385 1.58035 56.5254 4.3934L4.39339 56.5254Z"/>
</mask>
<path fill-rule="evenodd" clip-rule="evenodd" d="M4.39339 56.5254C1.58035 59.3385 0 63.1538 0 67.132V255C0 263.284 6.71573 270 15 270H581.426C585.405 270 589.22 268.42 592.033 265.607L645.607 212.033C648.42 209.22 650 205.405 650 201.426V15C650 6.71572 643.284 0 635 0H67.132C63.1538 0 59.3385 1.58035 56.5254 4.3934L4.39339 56.5254Z" fill="#020202"/>
<path d="M592.033 265.607L594.154 267.728L592.033 265.607ZM4.39339 56.5254L2.27207 54.4041L4.39339 56.5254ZM-3 67.132V255H3V67.132H-3ZM15 273H581.426V267H15V273ZM594.154 267.728L647.728 214.154L643.485 209.912L589.912 263.485L594.154 267.728ZM653 201.426V15H647V201.426H653ZM635 -3H67.132V3H635V-3ZM54.4041 2.27208L2.27207 54.4041L6.51471 58.6468L58.6468 6.51472L54.4041 2.27208ZM67.132 -3C62.3581 -3 57.7798 -1.10358 54.4041 2.27208L58.6468 6.51472C60.8972 4.26428 63.9494 3 67.132 3V-3ZM653 15C653 5.05887 644.941 -3 635 -3V3C641.627 3 647 8.37258 647 15H653ZM647.728 214.154C651.104 210.779 653 206.2 653 201.426H647C647 204.609 645.736 207.661 643.485 209.912L647.728 214.154ZM581.426 273C586.2 273 590.779 271.104 594.154 267.728L589.912 263.485C587.661 265.736 584.609 267 581.426 267V273ZM-3 255C-3 264.941 5.05887 273 15 273V267C8.37259 267 3 261.627 3 255H-3ZM3 67.132C3 63.9494 4.26428 60.8972 6.51471 58.6468L2.27207 54.4041C-1.10358 57.7798 -3 62.3581 -3 67.132H3Z" fill="#0583F2" mask="url(#path-1-inside-1_238_688)"/>
</svg>
