<svg width="40" height="40" viewBox="0 0 40 40" fill="none" xmlns="http://www.w3.org/2000/svg">
<path d="M16.25 15C15.9185 15 15.6005 15.1317 15.3661 15.3661C15.1317 15.6005 15 15.9185 15 16.25V23.75C15 24.0815 15.1317 24.3995 15.3661 24.6339C15.6005 24.8683 15.9185 25 16.25 25H23.75C23.9142 25.0003 24.0769 24.9681 24.2287 24.9054C24.3804 24.8427 24.5183 24.7506 24.6345 24.6345C24.7506 24.5183 24.8427 24.3804 24.9054 24.2287C24.9681 24.0769 25.0003 23.9142 25 23.75V16.25C25 15.9185 24.8683 15.6005 24.6339 15.3661C24.3995 15.1317 24.0815 15 23.75 15H16.25Z" fill="#0583F2"/>
<path d="M13.75 1.25C13.75 0.918479 13.6183 0.600537 13.3839 0.366117C13.1495 0.131696 12.8315 0 12.5 0C12.1685 0 11.8505 0.131696 11.6161 0.366117C11.3817 0.600537 11.25 0.918479 11.25 1.25V5C9.5924 5 8.00268 5.65848 6.83058 6.83058C5.65848 8.00268 5 9.5924 5 11.25H1.25C0.918479 11.25 0.600537 11.3817 0.366117 11.6161C0.131696 11.8505 0 12.1685 0 12.5C0 12.8315 0.131696 13.1495 0.366117 13.3839C0.600537 13.6183 0.918479 13.75 1.25 13.75H5V16.25H1.25C0.918479 16.25 0.600537 16.3817 0.366117 16.6161C0.131696 16.8505 0 17.1685 0 17.5C0 17.8315 0.131696 18.1495 0.366117 18.3839C0.600537 18.6183 0.918479 18.75 1.25 18.75H5V21.25H1.25C0.918479 21.25 0.600537 21.3817 0.366117 21.6161C0.131696 21.8505 0 22.1685 0 22.5C0 22.8315 0.131696 23.1495 0.366117 23.3839C0.600537 23.6183 0.918479 23.75 1.25 23.75H5V26.25H1.25C0.918479 26.25 0.600537 26.3817 0.366117 26.6161C0.131696 26.8505 0 27.1685 0 27.5C0 27.8315 0.131696 28.1495 0.366117 28.3839C0.600537 28.6183 0.918479 28.75 1.25 28.75H5C5 30.4076 5.65848 31.9973 6.83058 33.1694C8.00268 34.3415 9.5924 35 11.25 35V38.75C11.25 39.0815 11.3817 39.3995 11.6161 39.6339C11.8505 39.8683 12.1685 40 12.5 40C12.8315 40 13.1495 39.8683 13.3839 39.6339C13.6183 39.3995 13.75 39.0815 13.75 38.75V35H16.25V38.75C16.25 39.0815 16.3817 39.3995 16.6161 39.6339C16.8505 39.8683 17.1685 40 17.5 40C17.8315 40 18.1495 39.8683 18.3839 39.6339C18.6183 39.3995 18.75 39.0815 18.75 38.75V35H21.25V38.75C21.25 39.0815 21.3817 39.3995 21.6161 39.6339C21.8505 39.8683 22.1685 40 22.5 40C22.8315 40 23.1495 39.8683 23.3839 39.6339C23.6183 39.3995 23.75 39.0815 23.75 38.75V35H26.25V38.75C26.25 39.0815 26.3817 39.3995 26.6161 39.6339C26.8505 39.8683 27.1685 40 27.5 40C27.8315 40 28.1495 39.8683 28.3839 39.6339C28.6183 39.3995 28.75 39.0815 28.75 38.75V35C30.4076 35 31.9973 34.3415 33.1694 33.1694C34.3415 31.9973 35 30.4076 35 28.75H38.75C39.0815 28.75 39.3995 28.6183 39.6339 28.3839C39.8683 28.1495 40 27.8315 40 27.5C40 27.1685 39.8683 26.8505 39.6339 26.6161C39.3995 26.3817 39.0815 26.25 38.75 26.25H35V23.75H38.75C39.0815 23.75 39.3995 23.6183 39.6339 23.3839C39.8683 23.1495 40 22.8315 40 22.5C40 22.1685 39.8683 21.8505 39.6339 21.6161C39.3995 21.3817 39.0815 21.25 38.75 21.25H35V18.75H38.75C39.0815 18.75 39.3995 18.6183 39.6339 18.3839C39.8683 18.1495 40 17.8315 40 17.5C40 17.1685 39.8683 16.8505 39.6339 16.6161C39.3995 16.3817 39.0815 16.25 38.75 16.25H35V13.75H38.75C39.0815 13.75 39.3995 13.6183 39.6339 13.3839C39.8683 13.1495 40 12.8315 40 12.5C40 12.1685 39.8683 11.8505 39.6339 11.6161C39.3995 11.3817 39.0815 11.25 38.75 11.25H35C35 9.5924 34.3415 8.00268 33.1694 6.83058C31.9973 5.65848 30.4076 5 28.75 5V1.25C28.75 0.918479 28.6183 0.600537 28.3839 0.366117C28.1495 0.131696 27.8315 0 27.5 0C27.1685 0 26.8505 0.131696 26.6161 0.366117C26.3817 0.600537 26.25 0.918479 26.25 1.25V5H23.75V1.25C23.75 0.918479 23.6183 0.600537 23.3839 0.366117C23.1495 0.131696 22.8315 0 22.5 0C22.1685 0 21.8505 0.131696 21.6161 0.366117C21.3817 0.600537 21.25 0.918479 21.25 1.25V5H18.75V1.25C18.75 0.918479 18.6183 0.600537 18.3839 0.366117C18.1495 0.131696 17.8315 0 17.5 0C17.1685 0 16.8505 0.131696 16.6161 0.366117C16.3817 0.600537 16.25 0.918479 16.25 1.25V5H13.75V1.25ZM16.25 12.5H23.75C24.2425 12.5 24.7301 12.597 25.1851 12.7855C25.64 12.9739 26.0534 13.2501 26.4017 13.5983C26.7499 13.9466 27.0261 14.36 27.2145 14.8149C27.403 15.2699 27.5 15.7575 27.5 16.25V23.75C27.5 24.2425 27.403 24.7301 27.2145 25.1851C27.0261 25.64 26.7499 26.0534 26.4017 26.4017C26.0534 26.7499 25.64 27.0261 25.1851 27.2145C24.7301 27.403 24.2425 27.5 23.75 27.5H16.25C15.7575 27.5 15.2699 27.403 14.8149 27.2145C14.36 27.0261 13.9466 26.7499 13.5983 26.4017C13.2501 26.0534 12.9739 25.64 12.7855 25.1851C12.597 24.7301 12.5 24.2425 12.5 23.75V16.25C12.5 15.2554 12.8951 14.3016 13.5983 13.5983C14.3016 12.8951 15.2554 12.5 16.25 12.5Z" fill="#0583F2"/>
</svg>
