<svg width="24" height="26" viewBox="0 0 24 26" fill="none" xmlns="http://www.w3.org/2000/svg">
<path d="M2 6.63892H22" stroke="#0583F2" stroke-width="3" stroke-linecap="round" stroke-linejoin="round"/>
<path d="M9.5 11.5278V18.8612" stroke="#0583F2" stroke-width="3" stroke-linecap="round" stroke-linejoin="round"/>
<path d="M14.5 11.5278V18.8612" stroke="#0583F2" stroke-width="3" stroke-linecap="round" stroke-linejoin="round"/>
<path d="M3.25 6.63892L4.5 21.3056C4.5 21.9539 4.76339 22.5756 5.23223 23.0341C5.70107 23.4925 6.33696 23.75 7 23.75H17C17.663 23.75 18.2989 23.4925 18.7678 23.0341C19.2366 22.5756 19.5 21.9539 19.5 21.3056L20.75 6.63892" stroke="#0583F2" stroke-width="3" stroke-linecap="round" stroke-linejoin="round"/>
<path d="M8.25 6.63889V2.97222C8.25 2.64807 8.3817 2.33719 8.61612 2.10798C8.85054 1.87877 9.16848 1.75 9.5 1.75H14.5C14.8315 1.75 15.1495 1.87877 15.3839 2.10798C15.6183 2.33719 15.75 2.64807 15.75 2.97222V6.63889" stroke="#0583F2" stroke-width="3" stroke-linecap="round" stroke-linejoin="round"/>
</svg>
