<svg width="26" height="26" viewBox="0 0 26 26" fill="none" xmlns="http://www.w3.org/2000/svg">
<path d="M8.42474 6.89294H4.5699C3.88832 6.89294 3.23465 7.16364 2.7527 7.64547C2.27076 8.12731 2 8.78082 2 9.46224V21.0241C2 21.7055 2.27076 22.359 2.7527 22.8409C3.23465 23.3227 3.88832 23.5934 4.5699 23.5934H16.1344C16.816 23.5934 17.4697 23.3227 17.9516 22.8409C18.4336 22.359 18.7043 21.7055 18.7043 21.0241V17.1701" stroke="#0583F2" stroke-width="3" stroke-linecap="round" stroke-linejoin="round"/>
<path d="M8.42474 17.165H12.2796L23.2016 6.24551C23.4548 5.99246 23.6555 5.69204 23.7925 5.36141C23.9295 5.03078 24 4.67641 24 4.31854C24 3.96066 23.9295 3.6063 23.7925 3.27567C23.6555 2.94504 23.4548 2.64462 23.2016 2.39156C22.9485 2.13851 22.648 1.93778 22.3173 1.80082C21.9866 1.66387 21.6322 1.59338 21.2742 1.59338C20.5513 1.59338 19.858 1.8805 19.3468 2.39156L8.42474 13.3111V17.165Z" stroke="#0583F2" stroke-width="3" stroke-linecap="round" stroke-linejoin="round"/>
<path d="M17.4194 4.32361L21.2742 8.17845" stroke="#0583F2" stroke-width="3" stroke-linecap="round" stroke-linejoin="round"/>
</svg>
