<svg width="60" height="60" viewBox="0 0 60 60" fill="none" xmlns="http://www.w3.org/2000/svg">
<path d="M9.33417 1.875C9.33417 1.37772 9.53224 0.900805 9.8848 0.549175C10.2374 0.197544 10.7155 0 11.2141 0H48.8135C49.0603 0 49.3048 0.048498 49.5329 0.142726C49.761 0.236953 49.9682 0.375065 50.1428 0.549175C50.3174 0.723285 50.4558 0.929983 50.5503 1.15747C50.6448 1.38495 50.6934 1.62877 50.6934 1.875C50.6934 3.89375 50.6496 5.8125 50.5681 7.6375C52.0533 7.88349 53.474 8.42351 54.7467 9.22574C56.0193 10.028 57.118 11.0762 57.9781 12.3086C58.8382 13.541 59.4422 14.9326 59.7546 16.4015C60.0669 17.8703 60.0813 19.3867 59.7968 20.8612C59.5123 22.3357 58.9348 23.7385 58.0982 24.9868C57.2616 26.2352 56.183 27.3039 54.9258 28.13C53.6685 28.9561 52.2583 29.5228 50.778 29.7967C49.2977 30.0706 47.7775 30.0463 46.3068 29.725C43.3365 36.7187 39.2444 40.1375 35.6537 41.0156V49.1625L41.0116 50.5C41.7417 50.6781 42.431 51.0062 43.0326 51.4562L49.9414 56.625C50.2571 56.8611 50.4903 57.1903 50.6079 57.5659C50.7256 57.9416 50.7217 58.3446 50.597 58.7179C50.4722 59.0913 50.2328 59.416 49.9127 59.6461C49.5926 59.8762 49.208 60 48.8135 60H11.2141C10.8196 60 10.435 59.8762 10.1149 59.6461C9.79481 59.416 9.55542 59.0913 9.43064 58.7179C9.30587 58.3446 9.30203 57.9416 9.41968 57.5659C9.53733 57.1903 9.7705 56.8611 10.0862 56.625L16.9982 51.4562C17.5998 51.0031 18.2891 50.6781 19.016 50.5L24.3739 49.1625V41.0156C20.7832 40.1375 16.6942 36.7187 13.7208 29.7187C12.2482 30.0443 10.7252 30.072 9.2417 29.8002C7.75825 29.5284 6.34451 28.9626 5.08412 28.1363C3.82373 27.31 2.74229 26.2401 1.90378 24.9896C1.06526 23.7392 0.486701 22.3338 0.202316 20.8565C-0.0820688 19.3792 -0.0664996 17.86 0.248103 16.3888C0.562705 14.9176 1.16995 13.5242 2.03392 12.2912C2.89789 11.0581 4.00103 10.0104 5.27808 9.20999C6.55514 8.40959 7.98018 7.87275 9.4689 7.63125C9.37935 5.7138 9.33443 3.79453 9.33417 1.875ZM9.71016 11.4C7.74818 11.7576 6.009 12.8779 4.87522 14.5145C4.31383 15.3248 3.91796 16.2375 3.71023 17.2004C3.50249 18.1634 3.48696 19.1577 3.66451 20.1266C3.84205 21.0955 4.20921 22.02 4.74501 22.8474C5.28081 23.6748 5.97476 24.3888 6.78725 24.9487C8.42813 26.0795 10.4522 26.5139 12.4142 26.1562C11.1609 22.2188 10.2084 17.3594 9.71016 11.4ZM47.6197 26.1562C49.5817 26.5143 51.6059 26.0803 53.2471 24.9498C54.8883 23.8193 56.0119 22.0849 56.3709 20.1281C56.7299 18.1713 56.2948 16.1524 55.1613 14.5156C54.0278 12.8788 52.2888 11.758 50.3268 11.4C49.8255 17.3625 48.8667 22.2188 47.6197 26.1562Z" fill="#C58D20"/>
<path d="M26.556 19.134C26.388 19.266 26.208 19.284 26.016 19.188C25.836 19.092 25.746 18.936 25.746 18.72V17.406C25.746 16.722 26.022 16.182 26.574 15.786L28.392 14.454C28.932 14.058 29.55 13.86 30.246 13.86H31.38C31.656 13.86 31.896 13.962 32.1 14.166C32.304 14.37 32.406 14.61 32.406 14.886V25.974C32.406 26.25 32.304 26.49 32.1 26.694C31.896 26.898 31.656 27 31.38 27H30.246C29.97 27 29.73 26.898 29.526 26.694C29.322 26.49 29.22 26.25 29.22 25.974V17.226H29.202H29.184L26.556 19.134Z" fill="white"/>
</svg>
