<svg width="46" height="40" viewBox="0 0 46 40" fill="none" xmlns="http://www.w3.org/2000/svg">
<path d="M11.4282 20.0001C11.4282 19.4373 11.5391 18.88 11.7545 18.36C11.9698 17.84 12.2855 17.3676 12.6835 16.9696C13.0814 16.5716 13.5539 16.256 14.0739 16.0406C14.5938 15.8252 15.1511 15.7144 15.7139 15.7144C16.2767 15.7144 16.834 15.8252 17.354 16.0406C17.874 16.256 18.3464 16.5716 18.7444 16.9696C19.1424 17.3676 19.458 17.84 19.6734 18.36C19.8888 18.88 19.9997 19.4373 19.9997 20.0001C19.9997 21.1367 19.5481 22.2268 18.7444 23.0305C17.9407 23.8343 16.8506 24.2858 15.7139 24.2858C14.5773 24.2858 13.4872 23.8343 12.6835 23.0305C11.8798 22.2268 11.4282 21.1367 11.4282 20.0001Z" fill="#0583F2"/>
<path d="M32.8575 15.7144C31.7209 15.7144 30.6308 16.1659 29.827 16.9696C29.0233 17.7733 28.5718 18.8634 28.5718 20.0001C28.5718 21.1367 29.0233 22.2268 29.827 23.0305C30.6308 23.8343 31.7209 24.2858 32.8575 24.2858C33.9941 24.2858 35.0842 23.8343 35.8879 23.0305C36.6917 22.2268 37.1432 21.1367 37.1432 20.0001C37.1432 18.8634 36.6917 17.7733 35.8879 16.9696C35.0842 16.1659 33.9941 15.7144 32.8575 15.7144Z" fill="#0583F2"/>
<path fill-rule="evenodd" clip-rule="evenodd" d="M0 1.42857C0 1.24097 0.0369509 1.0552 0.108743 0.881881C0.180536 0.708559 0.285764 0.551074 0.418419 0.418419C0.551074 0.285764 0.708559 0.180536 0.881881 0.108744C1.0552 0.0369514 1.24097 0 1.42857 0H4.28571C4.66459 0 5.02796 0.15051 5.29587 0.418419C5.56378 0.686328 5.71429 1.04969 5.71429 1.42857V8.57143H44.2857C44.6646 8.57143 45.028 8.72194 45.2959 8.98985C45.5638 9.25776 45.7143 9.62112 45.7143 10V30C45.7143 30.3789 45.5638 30.7422 45.2959 31.0102C45.028 31.2781 44.6646 31.4286 44.2857 31.4286H5.71429V38.5714C5.71429 38.9503 5.56378 39.3137 5.29587 39.5816C5.02796 39.8495 4.66459 40 4.28571 40C3.90683 40 3.54347 39.8495 3.27556 39.5816C3.00765 39.3137 2.85714 38.9503 2.85714 38.5714V2.85714H1.42857C1.04969 2.85714 0.686328 2.70663 0.418419 2.43872C0.15051 2.17082 0 1.80745 0 1.42857ZM15.7143 12.8571C13.8199 12.8571 12.0031 13.6097 10.6635 14.9492C9.32398 16.2888 8.57143 18.1056 8.57143 20C8.57143 21.8944 9.32398 23.7112 10.6635 25.0508C12.0031 26.3903 13.8199 27.1429 15.7143 27.1429C17.6087 27.1429 19.4255 26.3903 20.7651 25.0508C22.1046 23.7112 22.8571 21.8944 22.8571 20C22.8571 18.1056 22.1046 16.2888 20.7651 14.9492C19.4255 13.6097 17.6087 12.8571 15.7143 12.8571ZM25.7143 20C25.7143 21.8944 26.4668 23.7112 27.8064 25.0508C29.1459 26.3903 30.9627 27.1429 32.8571 27.1429C34.7516 27.1429 36.5684 26.3903 37.9079 25.0508C39.2475 23.7112 40 21.8944 40 20C40 18.1056 39.2475 16.2888 37.9079 14.9492C36.5684 13.6097 34.7516 12.8571 32.8571 12.8571C30.9627 12.8571 29.1459 13.6097 27.8064 14.9492C26.4668 16.2888 25.7143 18.1056 25.7143 20Z" fill="#0583F2"/>
<path d="M18.5718 32.8572H8.57178V35.7144C8.57178 36.0933 8.72229 36.4566 8.9902 36.7245C9.25811 36.9924 9.62147 37.143 10.0003 37.143H17.1432C17.5221 37.143 17.8855 36.9924 18.1534 36.7245C18.4213 36.4566 18.5718 36.0933 18.5718 35.7144V32.8572Z" fill="#0583F2"/>
<path d="M20 32.8572V35.7144C20 36.0933 20.1505 36.4566 20.4184 36.7245C20.6863 36.9924 21.0497 37.143 21.4286 37.143H30C30.3789 37.143 30.7422 36.9924 31.0102 36.7245C31.2781 36.4566 31.4286 36.0933 31.4286 35.7144V32.8572H20Z" fill="#0583F2"/>
</svg>
