<svg width="32" height="40" viewBox="0 0 32 40" fill="none" xmlns="http://www.w3.org/2000/svg">
<path d="M16 2.66667C12.4638 2.66667 9.07239 4.07142 6.57191 6.57191C4.07142 9.0724 2.66667 12.4638 2.66667 16V18.6667H5.33333C6.04058 18.6667 6.71885 18.9476 7.21895 19.4477C7.71905 19.9478 8 20.6261 8 21.3333V29.3333C8 30.0406 7.71905 30.7189 7.21895 31.219C6.71885 31.7191 6.04058 32 5.33333 32H2.66667C1.95942 32 1.28115 31.7191 0.781049 31.219C0.280952 30.7189 0 30.0406 0 29.3333V16C0 11.7565 1.68571 7.68687 4.68629 4.68629C7.68687 1.68571 11.7565 0 16 0C20.2435 0 24.3131 1.68571 27.3137 4.68629C30.3143 7.68687 32 11.7565 32 16V32C32 33.7681 31.2976 35.4638 30.0474 36.714C28.7971 37.9643 27.1014 38.6667 25.3333 38.6667H19.6422C19.408 39.0723 19.0711 39.4091 18.6654 39.6432C18.2597 39.8772 17.7995 40.0003 17.3311 40H14.6644C14.3143 40 13.9675 39.931 13.644 39.797C13.3204 39.663 13.0264 39.4666 12.7788 39.219C12.5312 38.9713 12.3348 38.6774 12.2008 38.3538C12.0668 38.0303 11.9978 37.6835 11.9978 37.3333C11.9978 36.9831 12.0668 36.6364 12.2008 36.3128C12.3348 35.9893 12.5312 35.6953 12.7788 35.4477C13.0264 35.2001 13.3204 35.0037 13.644 34.8697C13.9675 34.7356 14.3143 34.6667 14.6644 34.6667H17.3311C17.7995 34.6664 18.2597 34.7894 18.6654 35.0235C19.0711 35.2576 19.408 35.5944 19.6422 36H25.3311C26.392 36 27.4094 35.5786 28.1595 34.8284C28.9097 34.0783 29.3311 33.0609 29.3311 32H26.6644C25.9572 32 25.2789 31.7191 24.7788 31.219C24.2787 30.7189 23.9978 30.0406 23.9978 29.3333V21.3333C23.9978 20.6261 24.2787 19.9478 24.7788 19.4477C25.2789 18.9476 25.9572 18.6667 26.6644 18.6667H29.3333V16C29.3336 14.249 28.9889 12.515 28.319 10.8972C27.649 9.2794 26.6669 7.80943 25.4287 6.57126C24.1906 5.33309 22.7206 4.35097 21.1028 3.68101C19.485 3.01105 17.751 2.66637 16 2.66667Z" fill="#0583F2"/>
</svg>
