<svg width="72" height="40" viewBox="0 0 72 40" fill="none" xmlns="http://www.w3.org/2000/svg">
<path d="M0 8.88889C0 6.53141 0.936505 4.27049 2.6035 2.6035C4.27048 0.936505 6.53141 0 8.88889 0H62.2222C64.5797 0 66.8406 0.936505 68.5076 2.6035C70.1746 4.27049 71.1111 6.53141 71.1111 8.88889V31.1111C71.1111 33.4686 70.1746 35.7295 68.5076 37.3965C66.8406 39.0635 64.5797 40 62.2222 40H8.88889C6.53141 40 4.27048 39.0635 2.6035 37.3965C0.936505 35.7295 0 33.4686 0 31.1111V8.88889ZM57.7778 10.0018V12.2204C57.7778 12.8356 58.2756 13.3333 58.8907 13.3333H61.1129C61.4074 13.3324 61.6896 13.2147 61.8975 13.0061C62.1055 12.7975 62.2222 12.515 62.2222 12.2204V10.0018C62.2227 9.8555 62.1942 9.71057 62.1385 9.57534C62.0827 9.4401 62.0007 9.31723 61.8973 9.2138C61.7939 9.11036 61.671 9.02841 61.5358 8.97265C61.4005 8.91688 61.2556 8.88842 61.1093 8.88889H58.8871C58.5926 8.88983 58.3104 9.0075 58.1025 9.2161C57.8945 9.42471 57.7778 9.70724 57.7778 10.0018ZM9.99822 17.7742C9.85224 17.7742 9.7077 17.803 9.57288 17.859C9.43805 17.915 9.3156 17.997 9.21254 18.1004C9.10949 18.2038 9.02785 18.3265 8.97231 18.4615C8.91677 18.5965 8.88842 18.7411 8.88889 18.8871V21.1058C8.88889 21.7209 9.38667 22.2187 10.0018 22.2187H12.224C12.37 22.2187 12.5145 22.1899 12.6493 22.1339C12.7842 22.0779 12.9066 21.9959 13.0097 21.8925C13.1127 21.7891 13.1944 21.6664 13.2499 21.5314C13.3055 21.3964 13.3338 21.2518 13.3333 21.1058V18.8871C13.3333 18.592 13.2161 18.3089 13.0074 18.1002C12.7987 17.8915 12.5156 17.7742 12.2204 17.7742H9.99822ZM17.7778 18.8907V21.1093C17.7778 21.7244 18.2756 22.2222 18.8907 22.2222H21.1129C21.2589 22.2222 21.4034 22.1934 21.5382 22.1374C21.6731 22.0815 21.7955 21.9994 21.8986 21.8961C22.0016 21.7927 22.0833 21.67 22.1388 21.535C22.1943 21.3999 22.2227 21.2553 22.2222 21.1093V18.8907C22.2222 18.5955 22.105 18.3124 21.8963 18.1037C21.6876 17.895 21.4045 17.7778 21.1093 17.7778H18.8871C18.7411 17.7778 18.5966 17.8066 18.4618 17.8626C18.3269 17.9185 18.2045 18.0006 18.1014 18.104C17.9984 18.2073 17.9167 18.33 17.8612 18.4651C17.8057 18.6001 17.7773 18.7447 17.7778 18.8907ZM27.7796 17.7778C27.6333 17.7773 27.4883 17.8058 27.3531 17.8615C27.2179 17.9173 27.095 17.9993 26.9916 18.1027C26.8881 18.2061 26.8062 18.329 26.7504 18.4642C26.6947 18.5995 26.6662 18.7444 26.6667 18.8907V21.1093C26.6667 21.7244 27.1644 22.2222 27.7796 22.2222H29.9982C30.2934 22.2222 30.5764 22.105 30.7852 21.8963C30.9939 21.6876 31.1111 21.4045 31.1111 21.1093V18.8907C31.1111 18.5955 30.9939 18.3124 30.7852 18.1037C30.5764 17.895 30.2934 17.7778 29.9982 17.7778H27.7796ZM35.5556 18.8907V21.1093C35.5556 21.7244 36.0533 22.2222 36.6684 22.2222H38.8871C39.0333 22.2222 39.178 22.1934 39.313 22.1375C39.448 22.0816 39.5707 21.9996 39.674 21.8963C39.7774 21.7929 39.8594 21.6702 39.9153 21.5352C39.9712 21.4002 40 21.2555 40 21.1093V18.8907C40 18.7445 39.9712 18.5998 39.9153 18.4648C39.8594 18.3298 39.7774 18.2071 39.674 18.1037C39.5707 18.0004 39.448 17.9184 39.313 17.8625C39.178 17.8066 39.0333 17.7778 38.8871 17.7778H36.6684C36.3733 17.7778 36.0902 17.895 35.8815 18.1037C35.6728 18.3124 35.5556 18.5955 35.5556 18.8907ZM58.8907 17.7778C58.5955 17.7778 58.3124 17.895 58.1037 18.1037C57.895 18.3124 57.7778 18.5955 57.7778 18.8907V21.1093C57.7778 21.7244 58.2756 22.2222 58.8907 22.2222H61.1129C61.4074 22.2213 61.6896 22.1036 61.8975 21.895C62.1055 21.6864 62.2222 21.4039 62.2222 21.1093V18.8907C62.2222 18.5955 62.105 18.3124 61.8963 18.1037C61.6876 17.895 61.4045 17.7778 61.1093 17.7778H58.8907ZM58.8907 26.6667C58.7445 26.6667 58.5998 26.6955 58.4648 26.7514C58.3298 26.8073 58.2071 26.8893 58.1037 26.9926C58.0004 27.096 57.9184 27.2187 57.8625 27.3537C57.8066 27.4887 57.7778 27.6334 57.7778 27.7796V29.9982C57.7778 30.6133 58.2756 31.1111 58.8907 31.1111H61.1129C61.4074 31.1102 61.6896 30.9925 61.8975 30.7839C62.1055 30.5753 62.2222 30.2928 62.2222 29.9982V27.7796C62.2222 27.6334 62.1934 27.4887 62.1375 27.3537C62.0816 27.2187 61.9996 27.096 61.8963 26.9926C61.7929 26.8893 61.6702 26.8073 61.5352 26.7514C61.4002 26.6955 61.2555 26.6667 61.1093 26.6667H58.8907ZM45.5573 17.7778C45.2622 17.7778 44.9791 17.895 44.7704 18.1037C44.5617 18.3124 44.4444 18.5955 44.4444 18.8907V21.1093C44.4444 21.7244 44.9422 22.2222 45.5573 22.2222H52.2204C52.5156 22.2222 52.7987 22.105 53.0074 21.8963C53.2161 21.6876 53.3333 21.4045 53.3333 21.1093V18.8907C53.3333 18.5955 53.2161 18.3124 53.0074 18.1037C52.7987 17.895 52.5156 17.7778 52.2204 17.7778H45.5573ZM48.8889 27.7796V29.9982C48.8889 30.6133 49.3867 31.1111 50.0018 31.1111H52.224C52.5185 31.1102 52.8007 30.9925 53.0086 30.7839C53.2166 30.5753 53.3333 30.2928 53.3333 29.9982V27.7796C53.3333 27.4844 53.2161 27.2013 53.0074 26.9926C52.7987 26.7839 52.5156 26.6667 52.2204 26.6667H49.9982C49.7037 26.6676 49.4215 26.7853 49.2136 26.9939C49.0056 27.2025 48.8889 27.485 48.8889 27.7796ZM50.0018 8.88889C49.8556 8.88889 49.7109 8.91767 49.5759 8.9736C49.4409 9.02953 49.3182 9.11151 49.2148 9.21485C49.1115 9.31819 49.0295 9.44087 48.9736 9.57589C48.9177 9.71092 48.8889 9.85563 48.8889 10.0018V12.2204C48.8889 12.8356 49.3867 13.3333 50.0018 13.3333H52.224C52.5185 13.3324 52.8007 13.2147 53.0086 13.0061C53.2166 12.7975 53.3333 12.515 53.3333 12.2204V10.0018C53.3338 9.8555 53.3053 9.71057 53.2496 9.57534C53.1938 9.4401 53.1119 9.31723 53.0084 9.2138C52.905 9.11036 52.7821 9.02841 52.6469 8.97265C52.5116 8.91688 52.3667 8.88842 52.2204 8.88889H50.0018ZM40 10.0018V12.2204C40 12.8356 40.4978 13.3333 41.1129 13.3333H43.3316C43.4777 13.3333 43.6224 13.3045 43.7574 13.2486C43.8925 13.1927 44.0151 13.1107 44.1185 13.0074C44.2218 12.904 44.3038 12.7814 44.3597 12.6463C44.4157 12.5113 44.4444 12.3666 44.4444 12.2204V10.0018C44.4449 9.8555 44.4164 9.71057 44.3607 9.57534C44.3049 9.4401 44.223 9.31723 44.1195 9.2138C44.0161 9.11036 43.8932 9.02841 43.758 8.97265C43.6228 8.91688 43.4778 8.88842 43.3316 8.88889H41.1129C40.8177 8.88889 40.5347 9.00614 40.326 9.21485C40.1172 9.42355 40 9.70662 40 10.0018ZM32.2204 8.88889C31.9259 8.88983 31.6437 9.0075 31.4358 9.2161C31.2279 9.42471 31.1111 9.70724 31.1111 10.0018V12.2204C31.1111 12.8356 31.6089 13.3333 32.224 13.3333H34.4427C34.5888 13.3333 34.7335 13.3045 34.8685 13.2486C35.0036 13.1927 35.1263 13.1107 35.2296 13.0074C35.3329 12.904 35.4149 12.7814 35.4708 12.6463C35.5268 12.5113 35.5556 12.3666 35.5556 12.2204V10.0018C35.556 9.8555 35.5276 9.71057 35.4718 9.57534C35.416 9.4401 35.3341 9.31723 35.2306 9.2138C35.1272 9.11036 35.0043 9.02841 34.8691 8.97265C34.7339 8.91688 34.5889 8.88842 34.4427 8.88889H32.2204ZM22.2222 10.0018V12.2204C22.2222 12.8356 22.72 13.3333 23.3351 13.3333H25.5538C25.7001 13.3338 25.845 13.3053 25.9802 13.2496C26.1154 13.1938 26.2383 13.1119 26.3418 13.0084C26.4452 12.905 26.5271 12.7821 26.5829 12.6469C26.6387 12.5117 26.6671 12.3667 26.6667 12.2204V10.0018C26.6671 9.8555 26.6387 9.71057 26.5829 9.57534C26.5271 9.4401 26.4452 9.31723 26.3418 9.2138C26.2383 9.11036 26.1154 9.02841 25.9802 8.97265C25.845 8.91688 25.7001 8.88842 25.5538 8.88889H23.3351C23.1888 8.88842 23.0439 8.91688 22.9087 8.97265C22.7734 9.02841 22.6506 9.11036 22.5471 9.2138C22.4437 9.31723 22.3617 9.4401 22.306 9.57534C22.2502 9.71057 22.2218 9.8555 22.2222 10.0018ZM9.99822 8.88889C9.85224 8.88889 9.7077 8.9177 9.57288 8.97367C9.43805 9.02964 9.3156 9.11167 9.21254 9.21506C9.10949 9.31845 9.02785 9.44116 8.97231 9.57616C8.91677 9.71116 8.88842 9.8558 8.88889 10.0018V12.2204C8.88889 12.8356 9.38667 13.3333 10.0018 13.3333H16.6684C16.8144 13.3333 16.959 13.3045 17.0938 13.2486C17.2286 13.1926 17.3511 13.1105 17.4541 13.0072C17.5572 12.9038 17.6388 12.7811 17.6944 12.6461C17.7499 12.5111 17.7782 12.3664 17.7778 12.2204V10.0018C17.7782 9.8555 17.7498 9.71057 17.694 9.57534C17.6383 9.4401 17.5563 9.31723 17.4529 9.2138C17.3494 9.11036 17.2266 9.02841 17.0913 8.97265C16.9561 8.91688 16.8112 8.88842 16.6649 8.88889H10.0018H9.99822ZM8.88889 27.7796V29.9982C8.88889 30.6133 9.38667 31.1111 10.0018 31.1111H12.224C12.37 31.1111 12.5145 31.0823 12.6493 31.0263C12.7842 30.9704 12.9066 30.8883 13.0097 30.7849C13.1127 30.6816 13.1944 30.5588 13.2499 30.4238C13.3055 30.2888 13.3338 30.1442 13.3333 29.9982V27.7796C13.3333 27.6334 13.3045 27.4887 13.2486 27.3537C13.1927 27.2187 13.1107 27.096 13.0074 26.9926C12.904 26.8893 12.7813 26.8073 12.6463 26.7514C12.5113 26.6955 12.3666 26.6667 12.2204 26.6667H9.99822C9.85224 26.6667 9.7077 26.6955 9.57288 26.7514C9.43805 26.8074 9.3156 26.8895 9.21254 26.9928C9.10949 27.0962 9.02785 27.2189 8.97231 27.3539C8.91677 27.4889 8.88842 27.6336 8.88889 27.7796ZM18.8907 26.6667C18.7444 26.6662 18.5995 26.6947 18.4642 26.7504C18.329 26.8062 18.2061 26.8881 18.1027 26.9916C17.9993 27.095 17.9173 27.2179 17.8615 27.3531C17.8058 27.4883 17.7773 27.6333 17.7778 27.7796V29.9982C17.7778 30.6133 18.2756 31.1111 18.8907 31.1111H43.3351C43.6296 31.1102 43.9118 30.9925 44.1197 30.7839C44.3277 30.5753 44.4444 30.2928 44.4444 29.9982V27.7796C44.4444 27.6334 44.4157 27.4887 44.3597 27.3537C44.3038 27.2187 44.2218 27.096 44.1185 26.9926C44.0151 26.8893 43.8925 26.8073 43.7574 26.7514C43.6224 26.6955 43.4777 26.6667 43.3316 26.6667H18.8907Z" fill="#0583F2"/>
</svg>
