<svg width="234" height="60" viewBox="0 0 234 60" fill="none" xmlns="http://www.w3.org/2000/svg">
<path d="M91.016 24.16C86.792 24.16 83.56 23.1893 81.32 21.248C79.08 19.2853 77.96 16.384 77.96 12.544C77.96 8.72533 79.08 5.83467 81.32 3.872C83.56 1.90933 86.792 0.938666 91.016 0.959999L102.536 1.024V5.12H91.368C88.5947 5.12 86.536 5.70667 85.192 6.88C83.848 8.05333 83.176 9.94133 83.176 12.544C83.176 15.1467 83.848 17.0453 85.192 18.24C86.536 19.4133 88.5947 20 91.368 20H102.856V24.16H91.016ZM115.941 24V15.84L103.812 1.12H110.149L118.501 11.488L126.821 1.12H133.157L121.093 15.808V24H115.941ZM135.396 24V1.184L154.66 1.12C157.199 1.12 159.076 1.65333 160.292 2.72C161.53 3.76533 162.148 5.344 162.148 7.456C162.148 9.568 161.444 11.1147 160.036 12.096C160.975 12.608 161.668 13.2907 162.116 14.144C162.564 14.976 162.788 16.0533 162.788 17.376C162.788 19.5307 162.17 21.1733 160.932 22.304C159.716 23.4133 157.839 23.968 155.3 23.968L135.396 24ZM154.052 5.216H140.516V10.336H154.052C155.994 10.336 156.964 9.46133 156.964 7.712C156.964 6.048 155.994 5.216 154.052 5.216ZM154.692 14.432H140.516V19.872H154.692C156.634 19.872 157.604 18.9547 157.604 17.12C157.604 15.328 156.634 14.432 154.692 14.432ZM166.303 24V1.12H191.391V5.28H171.423V10.336H189.535V14.496H171.423V19.84H191.391V24H166.303ZM194.896 24V1.12H214.064C216.432 1.12 218.267 1.71733 219.568 2.912C220.891 4.10667 221.552 5.92 221.552 8.352C221.552 10.4213 221.072 12.0427 220.112 13.216C219.152 14.3893 217.787 15.1253 216.016 15.424L221.296 24H215.472L210.576 15.584H200.016V24H194.896ZM213.456 5.28H200.016V11.392L213.456 11.424C214.395 11.424 215.11 11.1893 215.6 10.72C216.112 10.2507 216.368 9.46133 216.368 8.352C216.368 7.22133 216.112 6.432 215.6 5.984C215.11 5.51467 214.395 5.28 213.456 5.28ZM79.24 59V36.12H84.424L100.616 52.568V36.12H105.736V59H100.552L84.36 42.52V59H79.24ZM110.209 59V36.12H115.329V59H110.209ZM119.803 59V36.12H124.987L141.179 52.568V36.12H146.299V59H141.115L124.923 42.52V59H119.803ZM158.419 59.16C155.262 59.16 152.937 58.6053 151.443 57.496C149.971 56.3653 149.235 54.6373 149.235 52.312C149.235 51.7573 149.299 51.192 149.427 50.616H154.547C154.505 50.8933 154.473 51.16 154.451 51.416C154.43 51.672 154.419 51.8853 154.419 52.056C154.419 53.2293 154.857 54.0187 155.731 54.424C156.606 54.808 157.79 55 159.283 55H161.299C163.113 55 164.393 54.712 165.139 54.136C165.907 53.5387 166.291 52.4293 166.291 50.808V36.12H171.411V50.808C171.411 52.6853 171.123 54.2427 170.547 55.48C169.971 56.7173 169.011 57.6453 167.667 58.264C166.323 58.8613 164.489 59.16 162.163 59.16H158.419ZM173.351 59L183.655 36.12H191.559L201.863 59H196.295L194.119 54.168H181.095L178.919 59H173.351ZM182.951 50.008H192.263L187.815 40.12H187.399L182.951 50.008ZM203.692 59.16V55L222.092 55.032C223.03 55.032 223.745 54.8187 224.236 54.392C224.748 53.944 225.004 53.2293 225.004 52.248C225.004 51.2667 224.748 50.5627 224.236 50.136C223.745 49.688 223.03 49.464 222.092 49.464H210.635C208.268 49.464 206.422 48.8987 205.1 47.768C203.798 46.616 203.148 44.9307 203.148 42.712C203.148 40.4933 203.798 38.8187 205.1 37.688C206.422 36.536 208.268 35.96 210.635 35.96H228.62V40.12L211.18 40.088C210.262 40.088 209.548 40.3013 209.036 40.728C208.524 41.1333 208.268 41.7947 208.268 42.712C208.268 43.6293 208.524 44.3013 209.036 44.728C209.548 45.1333 210.262 45.336 211.18 45.336H222.636C225.004 45.336 226.838 45.9227 228.14 47.096C229.462 48.248 230.124 49.9653 230.124 52.248C230.124 54.5093 229.462 56.2267 228.14 57.4C226.838 58.5733 225.004 59.16 222.636 59.16H203.692Z" fill="#0583F2"/>
<path d="M19.6774 22.8874C21.1495 22.8874 22.343 21.6996 22.343 20.2344C22.343 18.7692 21.1495 17.5814 19.6774 17.5814C18.2052 17.5814 17.0118 18.7692 17.0118 20.2344C17.0118 21.6996 18.2052 22.8874 19.6774 22.8874Z" fill="#BF0449"/>
<path d="M32.4636 22.8639C33.9358 22.8639 35.1292 21.6761 35.1292 20.2109C35.1292 18.7457 33.9358 17.5579 32.4636 17.5579C30.9915 17.5579 29.798 18.7457 29.798 20.2109C29.798 21.6761 30.9915 22.8639 32.4636 22.8639Z" fill="#BF0449"/>
<path d="M39.0995 37.8261L42.49 33.1996L44.2344 33.9705L39.0995 37.8261Z" fill="#BF0449"/>
<path d="M46.9458 36L45.2996 41.0126C48.418 39.4865 51.4775 37.2365 52.0821 35.8018C50.7826 36.7018 49.0174 36.6561 46.9472 35.9948" fill="#BF0449"/>
<path d="M26.9806 43.2248C26.2438 43.1726 14.6131 34.26 14.6131 34.26L13.8384 32.3309L14.1328 27.3183C14.2781 33.8583 23.6397 37.6957 24.6932 38.1157C25.6157 38.4835 27.1795 36.767 27.1154 36.6692L26.9845 22.8835C28.0314 23.7092 29.0102 24.4344 29.8268 24.9705C29.9406 25.3618 31.0163 25.3853 31.0163 25.3853C31.1045 25.4326 31.2028 25.4581 31.3029 25.4596C32.6115 25.5131 35.4459 22.5027 35.4459 22.5027L30.6041 24.6235L30.6198 24.6431C30.6139 24.6372 30.6086 24.6306 30.6041 24.6235C27.9751 21.4748 26.9649 21.7775 26.9858 21.8283C26.9453 21.767 23.1909 22.2314 22.5628 24.437C21.2882 26.3935 15.13 21.3157 15.2006 21.4475C16.8953 18.2114 13.803 14.8175 12.7902 14.2136C29.2183 20.9127 34.0287 15.3875 33.9698 15.2779C25.7845 16.9409 26.0266 15.9522 26.0266 15.9522C26.147 14.8683 27.0918 11.7105 27.0918 11.7105L32.9046 9.30139L28.157 10.0723C28.0602 10.0214 26.0397 8.98182 26.2203 7.85487C26.414 6.64313 27.207 6.604 27.0918 6.60139C27.2371 3.17879 26.3171 0.696617 24.7664 0.0457479C24.7664 0.0457479 23.1202 -0.345556 18.5663 2.08835C14.1538 4.43487 12.942 7.57313 12.942 7.57313C12.942 7.57313 12.8923 7.54182 12.942 7.58226L12.5494 14.1105L12.5769 14.1209L13.0009 15.8401L13.3935 18.0575L14.0713 19.4075L13.9745 21.3353C14.1648 22.2876 14.2616 23.256 14.2637 24.227L14.0687 24.6353V24.7801C14.0687 24.7266 14.0687 24.6783 14.0687 24.6353L12.1058 28.7244C11.1662 29.2083 10.245 29.6948 10.0709 30.3C9.75818 31.0422 9.55535 31.7492 9.52656 32.4014C9.51191 32.6668 9.53215 32.9329 9.58676 33.1931L7.85156 33.964C6.32836 34.5966 5.33252 35.2683 5.13885 35.9883C2.57139 36.7826 1.05473 36.5218 0 35.7953L13.0637 49.3957L19.9417 51.7096L9.86549 43.997C9.86549 43.997 13.9339 45.0574 13.0624 44.5748C12.1909 44.0922 8.60531 38.79 8.60531 38.79L18.5846 45.4422L9.76996 32.717L9.75949 32.7027C9.76254 32.7077 9.76605 32.7125 9.76996 32.717C25.8657 52.337 33.5157 42.3783 33.3116 42.5505C31.222 42.9384 29.1053 43.1639 26.9806 43.2248ZM14.0792 24.8909C14.0792 25.127 14.0922 25.4622 14.1014 25.9135C14.0896 25.5444 14.0818 25.174 14.0752 24.8909H14.0792ZM14.1066 26.1418C14.1066 26.2188 14.1066 26.2996 14.1066 26.3818C14.1066 26.3035 14.1053 26.224 14.1027 26.1418H14.1066ZM14.1066 26.4235C14.1066 26.5644 14.1132 26.7157 14.1171 26.8748C14.1171 26.7392 14.1132 26.5892 14.1093 26.4235H14.1066ZM14.1184 26.9453V27.0209C14.1223 27.0001 14.121 26.9753 14.121 26.9492L14.1184 26.9453ZM14.46 22.8196C14.4469 22.8431 14.4364 22.8653 14.4259 22.8835L14.46 22.8196ZM29.7666 24.7957L29.8098 24.9457C29.8085 24.9131 29.7849 24.8296 29.7757 24.7996L29.7666 24.7957Z" fill="#BF0449"/>
<path d="M62.7379 15.0744C63.9967 14.6896 67 10.1583 67 10.1583C64.6746 12.9535 51.6894 14.3035 51.6894 14.3035L52.2704 12.857C52.2704 12.857 49.2607 12.1827 47.5242 12.3757C45.7877 12.5688 42.3892 15.1709 40.4512 15.8453C38.5132 16.5196 39.0955 15.8453 39.0955 15.8453V7.65138C39.0955 7.65138 37.7385 4.75964 33.4764 2.15617C29.2143 -0.447304 24.7573 0.0353042 24.7573 0.0353042C27.3744 1.28878 27.0826 6.59095 27.0826 6.59095C27.0826 6.59095 26.4048 6.68747 26.2111 7.84442C26.0174 9.00138 28.1478 10.0618 28.1478 10.0618L32.8954 9.29094L27.0879 11.7001C27.0879 11.7001 26.0227 14.8814 26.0227 15.9418C26.0227 17.0022 33.9658 15.2675 33.9658 15.2675C27.1847 20.5696 12.5559 14.1105 12.5559 14.1105C14.494 14.9779 15.1731 21.437 15.1731 21.437C15.1731 21.437 21.6637 26.4509 22.5366 24.4266C23.4094 22.4022 26.9583 21.8179 26.9583 21.8179C27.9908 21.5283 30.5766 24.6131 30.5766 24.6131L35.4184 22.4922C35.4184 22.4922 31.931 26.4457 29.9929 25.1009C28.0549 23.7561 26.9557 22.8835 26.9557 22.8835L27.0866 36.6692C26.4728 37.7948 24.6643 38.1157 24.6643 38.1157C14.1053 33.6809 14.1053 27.3183 14.1053 27.3183L13.8148 32.3309L14.5895 34.26C14.5895 34.26 24.9549 42.9365 26.9557 43.2248C28.9565 43.5131 33.2867 42.5505 33.2867 42.5505C24.2391 51.3913 9.74507 32.717 9.74507 32.717C11.7799 37.3448 18.5611 45.4422 18.5611 45.4422L8.58304 38.79C9.74507 41.3987 13.0388 44.5748 13.0388 44.5748L9.84191 43.997L19.9181 51.7096L13.0388 49.3957L27.0879 60C27.0879 60 44.623 46.9852 48.4965 41.8761C52.3699 36.767 52.082 35.8018 52.082 35.8018C51.501 37.5379 45.3009 41.0074 45.3009 41.0074C45.3009 41.0074 47.1421 37.0552 46.9471 35.9948C46.7521 34.9344 44.2304 33.9705 44.2304 33.9705L39.0994 37.8261C39.0994 37.8261 42.2963 34.6448 42.49 33.1996C42.6837 31.7544 42.2963 31.174 42.0058 30.3066C41.7153 29.4392 39.971 28.7309 39.971 28.7309C39.971 28.7309 37.9374 24.9131 37.8406 24.2335C37.7437 23.554 38.1311 21.3405 38.1311 21.3405C38.1311 21.3405 40.9406 22.4974 41.6185 21.9196C42.2963 21.3418 45.1059 21.8231 45.1059 21.8231C44.8154 22.6905 44.7133 24.0405 44.7133 24.0405C49.8365 28.5366 54.9818 26.3544 57.4067 25.1009C59.8315 23.8474 62.8321 20.1848 62.8321 20.1848C51.7876 24.6196 49.8495 21.8231 49.8495 21.8231C50.916 19.3161 49.559 18.6418 49.559 18.6418C47.0413 20.3766 38.0316 19.4127 38.0316 19.4127L38.7095 18.0627C42.5842 18.7383 43.4558 17.2918 43.4558 17.2918L52.082 16.907C53.3422 18.0627 52.8567 18.5453 52.8567 18.5453C59.3473 17.8696 62.7379 15.0744 62.7379 15.0744ZM19.676 22.8835C19.1499 22.883 18.6358 22.7271 18.1987 22.4354C17.7615 22.1437 17.4209 21.7294 17.22 21.2448C17.019 20.7602 16.9667 20.2271 17.0697 19.7129C17.1726 19.1987 17.4262 18.7264 17.7984 18.3558C18.1705 17.9852 18.6446 17.7329 19.1606 17.6308C19.6765 17.5287 20.2113 17.5814 20.6973 17.7822C21.1833 17.9829 21.5986 18.3228 21.8908 18.7588C22.183 19.1949 22.339 19.7074 22.339 20.2318C22.3388 20.5802 22.2698 20.9252 22.1359 21.247C22.0019 21.5688 21.8057 21.8612 21.5585 22.1074C21.3112 22.3536 21.0177 22.5489 20.6947 22.6821C20.3717 22.8153 20.0255 22.8837 19.676 22.8835ZM32.4636 22.8835C31.9376 22.8828 31.4236 22.7266 30.9866 22.4347C30.5496 22.1429 30.2093 21.7285 30.0085 21.2439C29.8078 20.7593 29.7556 20.2262 29.8587 19.7121C29.9618 19.1979 30.2155 18.7258 30.5877 18.3554C30.9599 17.9849 31.434 17.7327 31.9499 17.6307C32.4659 17.5287 33.0006 17.5815 33.4865 17.7823C33.9724 17.9831 34.3876 18.323 34.6798 18.759C34.9719 19.195 35.1279 19.7075 35.1279 20.2318C35.1277 20.5803 35.0586 20.9254 34.9246 21.2473C34.7906 21.5692 34.5943 21.8616 34.3469 22.1079C34.0995 22.3541 33.8058 22.5494 33.4826 22.6825C33.1595 22.8155 32.8132 22.8839 32.4636 22.8835Z" fill="#0583F2"/>
<path d="M18.2366 20.2292V19.9462C18.2366 19.7818 18.4093 19.6475 18.6213 19.6475H18.7129C18.8195 19.6455 18.9231 19.6821 19.0047 19.7505L19.3201 20.0336C19.3495 20.057 19.3733 20.0868 19.3897 20.1207C19.406 20.1545 19.4145 20.1916 19.4145 20.2292C19.4145 20.2668 19.406 20.3039 19.3897 20.3378C19.3733 20.3716 19.3495 20.4014 19.3201 20.4249L19.0047 20.7079C18.9231 20.7763 18.8195 20.8129 18.7129 20.8109H18.6252C18.4132 20.8109 18.2405 20.6805 18.2405 20.5123L18.2366 20.2292Z" fill="#0583F2"/>
<path d="M21.1141 20.2292V20.5123C21.1141 20.6779 20.9427 20.8109 20.7294 20.8109H20.6417C20.5352 20.8129 20.4315 20.7763 20.3499 20.7079L20.0346 20.4249C20.0055 20.4011 19.9821 20.3713 19.9661 20.3374C19.95 20.3036 19.9417 20.2666 19.9417 20.2292C19.9417 20.1918 19.95 20.1548 19.9661 20.121C19.9821 20.0872 20.0055 20.0573 20.0346 20.0336L20.3499 19.7505C20.4315 19.6821 20.5352 19.6455 20.6417 19.6475H20.7294C20.9427 19.6475 21.1141 19.7779 21.1141 19.9462V20.2292Z" fill="#0583F2"/>
<path d="M19.6747 18.8049H19.9586C20.1248 18.8049 20.2596 18.977 20.2596 19.1883V19.2757C20.2603 19.382 20.2221 19.4849 20.1523 19.5653L19.867 19.8797C19.8432 19.9086 19.8133 19.9319 19.7793 19.9479C19.7454 19.9639 19.7083 19.9722 19.6708 19.9722C19.6332 19.9722 19.5961 19.9639 19.5622 19.9479C19.5282 19.9319 19.4983 19.9086 19.4745 19.8797L19.1944 19.5653C19.1251 19.4848 19.0879 19.3818 19.0897 19.2757V19.1883C19.0897 18.977 19.2206 18.8049 19.3907 18.8049H19.6747Z" fill="#0583F2"/>
<path d="M19.6747 21.66H19.3907C19.2245 21.66 19.0897 21.4879 19.0897 21.2765V21.1892C19.0879 21.0831 19.1251 20.9801 19.1944 20.8996L19.4784 20.5852C19.5022 20.5563 19.5322 20.533 19.5661 20.517C19.6001 20.501 19.6371 20.4927 19.6747 20.4927C19.7122 20.4927 19.7493 20.501 19.7833 20.517C19.8172 20.533 19.8472 20.5563 19.871 20.5852L20.1562 20.8996C20.2246 20.9805 20.2614 21.0834 20.2596 21.1892V21.2765C20.2596 21.4879 20.1288 21.66 19.9586 21.66H19.6747Z" fill="#0583F2"/>
<path d="M32.4636 21.6783C33.2781 21.6783 33.9383 21.0213 33.9383 20.2109C33.9383 19.4005 33.2781 18.7435 32.4636 18.7435C31.6491 18.7435 30.9888 19.4005 30.9888 20.2109C30.9888 21.0213 31.6491 21.6783 32.4636 21.6783Z" fill="#0583F2"/>
</svg>
