<svg width="212" height="190" viewBox="0 0 212 190" fill="none" xmlns="http://www.w3.org/2000/svg">
<path d="M62.2626 72.4769C66.9208 72.4769 70.697 68.7155 70.697 64.0756C70.697 59.4357 66.9208 55.6743 62.2626 55.6743C57.6044 55.6743 53.8281 59.4357 53.8281 64.0756C53.8281 68.7155 57.6044 72.4769 62.2626 72.4769Z" fill="#BF0449"/>
<path d="M102.721 72.4025C107.379 72.4025 111.155 68.6411 111.155 64.0012C111.155 59.3613 107.379 55.5999 102.721 55.5999C98.0624 55.5999 94.2861 59.3613 94.2861 64.0012C94.2861 68.6411 98.0624 72.4025 102.721 72.4025Z" fill="#BF0449"/>
<path d="M123.718 119.783L134.446 105.132L139.966 107.573L123.718 119.783Z" fill="#BF0449"/>
<path d="M148.546 114L143.337 129.873C153.204 125.041 162.885 117.916 164.798 113.372C160.686 116.222 155.1 116.078 148.55 113.984" fill="#BF0449"/>
<path d="M85.3714 136.879C83.0402 136.713 46.2384 108.49 46.2384 108.49L43.7871 102.381L44.7187 86.508C45.1784 107.218 74.8004 119.37 78.1336 120.7C81.0527 121.864 86.0008 116.429 85.7979 116.119L85.3838 72.4645C88.6963 75.0791 91.7935 77.3756 94.3773 79.0732C94.7375 80.3124 98.1411 80.3867 98.1411 80.3867C98.4201 80.5364 98.7311 80.6172 99.0479 80.6221C103.189 80.7915 112.157 71.2585 112.157 71.2585L96.8368 77.9745L96.8865 78.0365C96.8677 78.0177 96.851 77.9969 96.8368 77.9745C88.5183 68.0037 85.3217 68.9619 85.388 69.123C85.2596 68.9289 73.3801 70.3993 71.3926 77.3839C67.3597 83.5795 47.8739 67.4998 48.0975 67.9169C53.4596 57.6693 43.6753 46.922 40.4705 45.0096C92.4519 66.2235 107.673 48.727 107.486 48.38C81.5869 53.6463 82.3529 50.5154 82.3529 50.5154C82.7338 47.0831 85.7234 37.0833 85.7234 37.0833L104.116 29.4544L89.0938 31.8955C88.7874 31.7344 82.3943 28.4424 82.9657 24.8737C83.5785 21.0366 86.0877 20.9127 85.7234 20.9044C86.183 10.0662 83.2721 2.20595 78.3655 0.144866C78.3655 0.144866 73.1566 -1.09426 58.7472 6.61312C44.785 14.0438 40.9508 23.9816 40.9508 23.9816C40.9508 23.9816 40.7934 23.8824 40.9508 24.0105L39.7086 44.6833L39.7955 44.7163L41.1371 50.1602L42.3793 57.182L44.5241 61.4569L44.2177 67.5617C44.8199 70.5773 45.1264 73.6441 45.1328 76.7189L44.5159 78.0117V78.4702C44.5159 78.3008 44.5159 78.148 44.5159 78.0117L38.3049 90.9606C35.332 92.493 32.417 94.0336 31.8662 95.9501C30.8766 98.3004 30.2348 100.539 30.1437 102.604C30.0974 103.445 30.1614 104.288 30.3342 105.111L24.8437 107.553C20.0241 109.556 16.873 111.683 16.2602 113.963C8.13633 116.478 3.33734 115.652 0 113.352L41.3359 156.42L63.099 163.747L31.2162 139.324C31.2162 139.324 44.0894 142.682 41.3317 141.154C38.5741 139.625 27.2287 122.835 27.2287 122.835L58.8052 143.9L30.9139 103.604L30.8808 103.558C30.8904 103.575 30.9015 103.59 30.9139 103.604C81.8436 165.734 106.05 134.198 105.404 134.743C98.7918 135.972 92.0942 136.686 85.3714 136.879ZM44.549 78.8213C44.549 79.5689 44.5904 80.6304 44.6194 82.0595C44.5821 80.8906 44.5573 79.7176 44.5366 78.8213H44.549ZM44.6359 82.7823C44.6359 83.026 44.6359 83.2821 44.6359 83.5424C44.6359 83.2945 44.6318 83.0426 44.6235 82.7823H44.6359ZM44.6359 83.6745C44.6359 84.1206 44.6566 84.5997 44.6691 85.1036C44.6691 84.6741 44.6566 84.1991 44.6442 83.6745H44.6359ZM44.6732 85.3267V85.5663C44.6856 85.5002 44.6815 85.4217 44.6815 85.3391L44.6732 85.3267ZM45.7539 72.2621C45.7125 72.3365 45.6794 72.4067 45.6462 72.4645L45.7539 72.2621ZM94.1868 78.5198L94.3234 78.9948C94.3193 78.8915 94.2448 78.6271 94.2158 78.5321L94.1868 78.5198Z" fill="#BF0449"/>
<path d="M198.514 47.7356C202.497 46.5172 212 32.1681 212 32.1681C204.642 41.0196 163.555 45.2946 163.555 45.2946L165.393 40.7139C165.393 40.7139 155.87 38.5785 150.375 39.1898C144.88 39.8011 134.127 48.0413 127.995 50.1767C121.863 52.3122 123.705 50.1767 123.705 50.1767V24.2294C123.705 24.2294 119.411 15.0722 105.925 6.82787C92.4393 -1.41646 78.3363 0.111797 78.3363 0.111797C86.6176 4.08114 85.6942 20.8713 85.6942 20.8713C85.6942 20.8713 83.5494 21.177 82.9366 24.8407C82.3238 28.5044 89.0647 31.8624 89.0647 31.8624L104.087 29.4213L85.7108 37.0502C85.7108 37.0502 82.3403 47.1243 82.3403 50.4824C82.3403 53.8404 107.474 48.3469 107.474 48.3469C86.0172 65.1371 39.7291 44.6833 39.7291 44.6833C45.8614 47.43 48.0104 67.8839 48.0104 67.8839C48.0104 67.8839 68.5479 83.7612 71.3097 77.3508C74.0715 70.9404 85.3009 69.09 85.3009 69.09C88.5678 68.173 96.7497 77.9415 96.7497 77.9415L112.07 71.2254C112.07 71.2254 101.035 83.7447 94.903 79.4863C88.7707 75.2278 85.2926 72.4645 85.2926 72.4645L85.7066 116.119C83.7647 119.684 78.0423 120.7 78.0423 120.7C44.6316 106.656 44.6316 86.508 44.6316 86.508L43.7124 102.381L46.1637 108.49C46.1637 108.49 78.9616 135.966 85.2926 136.879C91.6236 137.791 105.325 134.743 105.325 134.743C76.6966 162.739 30.8351 103.604 30.8351 103.604C37.2738 118.259 58.7305 143.9 58.7305 143.9L27.1582 122.835C30.8351 131.096 41.257 141.154 41.257 141.154L31.1415 139.324L63.0243 163.747L41.257 156.42L85.7108 190C85.7108 190 141.195 148.787 153.451 132.608C165.708 116.429 164.797 113.372 164.797 113.372C162.958 118.87 143.34 129.857 143.34 129.857C143.34 129.857 149.166 117.342 148.549 113.984C147.932 110.626 139.953 107.573 139.953 107.573L123.718 119.783C123.718 119.783 133.833 109.709 134.446 105.132C135.059 100.556 133.833 98.7175 132.914 95.9708C131.995 93.2241 126.475 90.9812 126.475 90.9812C126.475 90.9812 120.041 78.8915 119.734 76.7395C119.428 74.5876 120.654 67.5782 120.654 67.5782C120.654 67.5782 129.543 71.2419 131.688 69.4121C133.833 67.5824 142.723 69.1065 142.723 69.1065C141.804 71.8532 141.481 76.1282 141.481 76.1282C157.691 90.3658 173.972 83.4556 181.645 79.4863C189.318 75.5169 198.812 63.9187 198.812 63.9187C163.865 77.9621 157.733 69.1065 157.733 69.1065C161.107 61.1678 156.814 59.0324 156.814 59.0324C148.847 64.5258 120.339 61.4734 120.339 61.4734L122.484 57.1985C134.744 59.338 137.502 54.7574 137.502 54.7574L164.797 53.5389C168.784 57.1985 167.248 58.7267 167.248 58.7267C187.785 56.5871 198.514 47.7356 198.514 47.7356ZM62.2583 72.4645C60.5937 72.4629 58.967 71.969 57.5838 71.0453C56.2006 70.1216 55.1229 68.8096 54.4871 67.2751C53.8512 65.7406 53.6857 64.0524 54.0114 62.4241C54.3372 60.7957 55.1395 59.3003 56.3171 58.1268C57.4947 56.9532 58.9947 56.1543 60.6274 55.8309C62.26 55.5076 63.9522 55.6744 65.4899 56.3102C67.0275 56.946 68.3418 58.0223 69.2664 59.403C70.191 60.7837 70.6845 62.4069 70.6845 64.0674C70.6839 65.1706 70.4655 66.263 70.0418 67.2821C69.618 68.3012 68.9972 69.227 68.2148 70.0068C67.4323 70.7865 66.5036 71.4049 65.4816 71.8266C64.4596 72.2483 63.3643 72.4651 62.2583 72.4645ZM102.72 72.4645C101.056 72.4621 99.4298 71.9675 98.0471 71.0433C96.6645 70.1191 95.5874 68.8068 94.9522 67.2722C94.317 65.7376 94.1521 64.0496 94.4783 62.4216C94.8045 60.7935 95.6072 59.2984 96.7849 58.1253C97.9627 56.9522 99.4626 56.1537 101.095 55.8307C102.728 55.5076 104.42 55.6747 105.957 56.3106C107.495 56.9465 108.809 58.0228 109.733 59.4034C110.657 60.7841 111.151 62.4071 111.151 64.0674C111.15 65.171 110.932 66.2637 110.508 67.283C110.084 68.3024 109.463 69.2284 108.68 70.0082C107.897 70.788 106.968 71.4063 105.945 71.8278C104.923 72.2492 103.827 72.4656 102.72 72.4645Z" fill="#0583F2"/>
<path d="M57.7031 64.0592V63.1629C57.7031 62.6424 58.2498 62.217 58.9208 62.217H59.2107C59.548 62.2109 59.8761 62.3268 60.1343 62.5433L61.1324 63.4396C61.2257 63.5139 61.3009 63.6082 61.3527 63.7154C61.4044 63.8227 61.4312 63.9401 61.4312 64.0592C61.4312 64.1782 61.4044 64.2957 61.3527 64.4029C61.3009 64.5102 61.2257 64.6044 61.1324 64.6787L60.1343 65.575C59.8761 65.7915 59.548 65.9075 59.2107 65.9013H58.9332C58.2623 65.9013 57.7155 65.4883 57.7155 64.9555L57.7031 64.0592Z" fill="#0583F2"/>
<path d="M66.8095 64.0592V64.9555C66.8095 65.48 66.2669 65.9013 65.5918 65.9013H65.3143C64.977 65.9075 64.6489 65.7915 64.3907 65.575L63.3926 64.6787C63.3007 64.6036 63.2267 64.509 63.1758 64.4019C63.125 64.2947 63.0986 64.1777 63.0986 64.0592C63.0986 63.9406 63.125 63.8236 63.1758 63.7165C63.2267 63.6093 63.3007 63.5148 63.3926 63.4396L64.3907 62.5433C64.6489 62.3268 64.977 62.2109 65.3143 62.217H65.5918C66.2669 62.217 66.8095 62.63 66.8095 63.1629V64.0592Z" fill="#0583F2"/>
<path d="M62.2549 59.5488H63.1536C63.6796 59.5488 64.1062 60.094 64.1062 60.7631V61.0398C64.1082 61.3764 63.9875 61.7023 63.7666 61.9568L62.8637 62.9522C62.7883 63.0439 62.6935 63.1177 62.5861 63.1684C62.4786 63.2191 62.3613 63.2454 62.2424 63.2454C62.1236 63.2454 62.0062 63.2191 61.8988 63.1684C61.7914 63.1177 61.6966 63.0439 61.6212 62.9522L60.7349 61.9568C60.5155 61.7019 60.3977 61.3756 60.4035 61.0398V60.7631C60.4035 60.094 60.8177 59.5488 61.3561 59.5488H62.2549Z" fill="#0583F2"/>
<path d="M62.2549 68.5901H61.3561C60.8301 68.5901 60.4035 68.0449 60.4035 67.3757V67.099C60.3977 66.7632 60.5155 66.4369 60.7349 66.182L61.6336 65.1866C61.709 65.095 61.8038 65.0211 61.9112 64.9704C62.0186 64.9198 62.136 64.8935 62.2549 64.8935C62.3737 64.8935 62.4911 64.9198 62.5985 64.9704C62.7059 65.0211 62.8007 65.095 62.8761 65.1866L63.779 66.182C63.9955 66.4383 64.1117 66.764 64.1062 67.099V67.3757C64.1062 68.0449 63.692 68.5901 63.1536 68.5901H62.2549Z" fill="#0583F2"/>
<path d="M102.723 68.648C105.3 68.648 107.39 66.5676 107.39 64.0012C107.39 61.4349 105.3 59.3545 102.723 59.3545C100.146 59.3545 98.0566 61.4349 98.0566 64.0012C98.0566 66.5676 100.146 68.648 102.723 68.648Z" fill="#0583F2"/>
</svg>
