<svg width="1358" height="789" viewBox="0 0 1358 789" fill="none" xmlns="http://www.w3.org/2000/svg">
<mask id="path-1-inside-1_125_83" fill="white">
<path fill-rule="evenodd" clip-rule="evenodd" d="M103.366 718.07C86.7972 718.07 73.3657 704.639 73.3657 688.07V255.585C73.3657 247.183 76.8892 239.166 83.0791 233.484L254.681 75.9694C260.215 70.8891 267.455 68.0703 274.967 68.0703H1252.63C1269.2 68.0703 1282.63 81.5018 1282.63 98.0703V529.663C1282.63 538.065 1279.11 546.082 1272.92 551.763L1100.35 710.171C1094.81 715.252 1087.57 718.07 1080.06 718.07H103.366Z"/>
</mask>
<path fill-rule="evenodd" clip-rule="evenodd" d="M103.366 718.07C86.7972 718.07 73.3657 704.639 73.3657 688.07V255.585C73.3657 247.183 76.8892 239.166 83.0791 233.484L254.681 75.9694C260.215 70.8891 267.455 68.0703 274.967 68.0703H1252.63C1269.2 68.0703 1282.63 81.5018 1282.63 98.0703V529.663C1282.63 538.065 1279.11 546.082 1272.92 551.763L1100.35 710.171C1094.81 715.252 1087.57 718.07 1080.06 718.07H103.366Z" fill="#020202"/>
<path d="M1100.35 710.171L1102.38 712.381L1100.35 710.171ZM1272.92 551.763L1270.89 549.553L1272.92 551.763ZM83.0791 233.484L85.1077 235.695L83.0791 233.484ZM70.3657 255.585V688.07H76.3657V255.585H70.3657ZM252.652 73.7593L81.0504 231.274L85.1077 235.695L256.709 78.1795L252.652 73.7593ZM1252.63 65.0703H274.967V71.0703H1252.63V65.0703ZM1285.63 529.663V98.0703H1279.63V529.663H1285.63ZM1102.38 712.381L1274.95 553.974L1270.89 549.553L1098.32 707.961L1102.38 712.381ZM103.366 721.07H1080.06V715.07H103.366V721.07ZM1098.32 707.961C1093.34 712.533 1086.82 715.07 1080.06 715.07V721.07C1088.32 721.07 1096.29 717.97 1102.38 712.381L1098.32 707.961ZM1279.63 529.663C1279.63 537.224 1276.46 544.44 1270.89 549.553L1274.95 553.974C1281.76 547.724 1285.63 538.905 1285.63 529.663H1279.63ZM1252.63 71.0703C1267.55 71.0703 1279.63 83.1586 1279.63 98.0703H1285.63C1285.63 79.8449 1270.86 65.0703 1252.63 65.0703V71.0703ZM256.709 78.1795C261.691 73.6072 268.206 71.0703 274.967 71.0703V65.0703C266.703 65.0703 258.74 68.171 252.652 73.7593L256.709 78.1795ZM70.3657 688.07C70.3657 706.296 85.1403 721.07 103.366 721.07V715.07C88.454 715.07 76.3657 702.982 76.3657 688.07H70.3657ZM76.3657 255.585C76.3657 248.023 79.5369 240.808 85.1077 235.695L81.0504 231.274C74.2416 237.524 70.3657 246.343 70.3657 255.585H76.3657Z" fill="url(#paint0_linear_125_83)" mask="url(#path-1-inside-1_125_83)"/>
<g filter="url(#filter0_d_125_83)">
<line x1="1.5" y1="-1.5" x2="270.348" y2="-1.5" transform="matrix(0.73677 -0.676143 0.73677 0.676143 51.5771 231.878)" stroke="#F2F2F2" stroke-width="3" stroke-linecap="round"/>
<path d="M53.0771 230.102C53.0771 229.273 52.4056 228.602 51.5771 228.602C50.7487 228.602 50.0771 229.273 50.0771 230.102L53.0771 230.102ZM51.5771 368.07C47.1589 368.07 43.5771 371.652 43.5771 376.07C43.5771 380.489 47.1589 384.07 51.5771 384.07C55.9954 384.07 59.5771 380.489 59.5771 376.07C59.5771 371.652 55.9954 368.07 51.5771 368.07ZM50.0771 230.102L50.0771 376.07L53.0771 376.07L53.0771 230.102L50.0771 230.102Z" fill="#F2F2F2"/>
<path d="M249.854 46.6412C249.025 46.6412 248.354 47.3128 248.354 48.1412C248.354 48.9696 249.025 49.6412 249.854 49.6412V46.6412ZM400.91 48.1412C400.91 52.5595 404.492 56.1412 408.91 56.1412C413.329 56.1412 416.91 52.5595 416.91 48.1412C416.91 43.7229 413.329 40.1412 408.91 40.1412C404.492 40.1412 400.91 43.7229 400.91 48.1412ZM249.854 49.6412L408.91 49.6412V46.6412L249.854 46.6412V49.6412Z" fill="#F2F2F2"/>
</g>
<g filter="url(#filter1_d_125_83)">
<line x1="1.5" y1="-1.5" x2="280.834" y2="-1.5" transform="matrix(0.73677 -0.676143 0.73677 0.676143 29.7886 218.878)" stroke="#F2F2F2" stroke-width="3" stroke-linecap="round"/>
<path d="M31.2886 217.07C31.2886 216.242 30.617 215.57 29.7886 215.57C28.9601 215.57 28.2886 216.242 28.2886 217.07L31.2886 217.07ZM29.7886 329.07C25.3703 329.07 21.7886 332.652 21.7886 337.07C21.7886 341.489 25.3703 345.07 29.7886 345.07C34.2068 345.07 37.7886 341.489 37.7886 337.07C37.7886 332.652 34.2068 329.07 29.7886 329.07ZM28.2886 217.07L28.2886 337.07L31.2886 337.07L31.2886 217.07L28.2886 217.07Z" fill="#F2F2F2"/>
<path d="M235.691 26.5703C234.862 26.5703 234.191 27.2419 234.191 28.0703C234.191 28.8987 234.862 29.5703 235.691 29.5703V26.5703ZM321.382 28.0703C321.382 32.4886 324.964 36.0703 329.382 36.0703C333.8 36.0703 337.382 32.4886 337.382 28.0703C337.382 23.652 333.8 20.0703 329.382 20.0703C324.964 20.0703 321.382 23.652 321.382 28.0703ZM235.691 29.5703L329.382 29.5703V26.5703L235.691 26.5703V29.5703Z" fill="#F2F2F2"/>
</g>
<g filter="url(#filter2_d_125_83)">
<line x1="1.5" y1="-1.5" x2="291.291" y2="-1.5" transform="matrix(0.73677 -0.676143 0.73677 0.676143 8 205.969)" stroke="#F2F2F2" stroke-width="3" stroke-linecap="round"/>
<path d="M9.5 204.07C9.5 203.242 8.82843 202.57 8 202.57C7.17157 202.57 6.5 203.242 6.5 204.07L9.5 204.07ZM8 300.07C3.58172 300.07 -4.3538e-06 303.652 -4.54697e-06 308.07C-4.74014e-06 312.489 3.58172 316.07 8 316.07C12.4183 316.07 16 312.489 16 308.07C16 303.652 12.4183 300.07 8 300.07ZM6.5 204.07L6.5 308.07L9.5 308.07L9.5 204.07L6.5 204.07Z" fill="#F2F2F2"/>
<path d="M221.528 6.5703C220.7 6.5703 220.028 7.24188 220.028 8.0703C220.028 8.89873 220.7 9.5703 221.528 9.5703V6.5703ZM369.317 8.0703C369.317 12.4886 372.899 16.0703 377.317 16.0703C381.735 16.0703 385.317 12.4886 385.317 8.0703C385.317 3.65203 381.735 0.0703049 377.317 0.0703049C372.899 0.0703049 369.317 3.65203 369.317 8.0703ZM221.528 9.5703L377.317 9.5703V6.5703L221.528 6.5703V9.5703Z" fill="#F2F2F2"/>
</g>
<g filter="url(#filter3_d_125_83)">
<line x1="1.5" y1="-1.5" x2="270.348" y2="-1.5" transform="matrix(-0.73677 0.676143 -0.73677 -0.676143 1304.42 554.262)" stroke="#F2F2F2" stroke-width="3" stroke-linecap="round"/>
<path d="M1302.92 556.039C1302.92 556.867 1303.59 557.539 1304.42 557.539C1305.25 557.539 1305.92 556.867 1305.92 556.039L1302.92 556.039ZM1304.42 418.07C1308.84 418.07 1312.42 414.489 1312.42 410.07C1312.42 405.652 1308.84 402.07 1304.42 402.07C1300 402.07 1296.42 405.652 1296.42 410.07C1296.42 414.489 1300 418.07 1304.42 418.07ZM1305.92 556.039L1305.92 410.07L1302.92 410.07L1302.92 556.039L1305.92 556.039Z" fill="#F2F2F2"/>
<path d="M1106.15 739.499C1106.97 739.499 1107.65 738.828 1107.65 737.999C1107.65 737.171 1106.97 736.499 1106.15 736.499L1106.15 739.499ZM955.09 737.999C955.09 733.581 951.508 729.999 947.09 729.999C942.671 729.999 939.09 733.581 939.09 737.999C939.09 742.418 942.671 745.999 947.09 745.999C951.508 745.999 955.09 742.418 955.09 737.999ZM1106.15 736.499L947.09 736.499L947.09 739.499L1106.15 739.499L1106.15 736.499Z" fill="#F2F2F2"/>
</g>
<g filter="url(#filter4_d_125_83)">
<line x1="1.5" y1="-1.5" x2="280.834" y2="-1.5" transform="matrix(-0.73677 0.676143 -0.73677 -0.676143 1326.21 567.262)" stroke="#F2F2F2" stroke-width="3" stroke-linecap="round"/>
<path d="M1324.71 569.07C1324.71 569.899 1325.38 570.57 1326.21 570.57C1327.04 570.57 1327.71 569.899 1327.71 569.07L1324.71 569.07ZM1326.21 457.07C1330.63 457.07 1334.21 453.489 1334.21 449.07C1334.21 444.652 1330.63 441.07 1326.21 441.07C1321.79 441.07 1318.21 444.652 1318.21 449.07C1318.21 453.489 1321.79 457.07 1326.21 457.07ZM1327.71 569.07L1327.71 449.07L1324.71 449.07L1324.71 569.07L1327.71 569.07Z" fill="#F2F2F2"/>
<path d="M1120.31 759.57C1121.14 759.57 1121.81 758.899 1121.81 758.07C1121.81 757.242 1121.14 756.57 1120.31 756.57L1120.31 759.57ZM1034.62 758.07C1034.62 753.652 1031.04 750.07 1026.62 750.07C1022.2 750.07 1018.62 753.652 1018.62 758.07C1018.62 762.489 1022.2 766.07 1026.62 766.07C1031.04 766.07 1034.62 762.489 1034.62 758.07ZM1120.31 756.57L1026.62 756.57L1026.62 759.57L1120.31 759.57L1120.31 756.57Z" fill="#F2F2F2"/>
</g>
<g filter="url(#filter5_d_125_83)">
<line x1="1.5" y1="-1.5" x2="291.291" y2="-1.5" transform="matrix(-0.73677 0.676143 -0.73677 -0.676143 1348 580.172)" stroke="#F2F2F2" stroke-width="3" stroke-linecap="round"/>
<path d="M1346.5 582.07C1346.5 582.899 1347.17 583.57 1348 583.57C1348.83 583.57 1349.5 582.899 1349.5 582.07L1346.5 582.07ZM1348 486.07C1352.42 486.07 1356 482.489 1356 478.07C1356 473.652 1352.42 470.07 1348 470.07C1343.58 470.07 1340 473.652 1340 478.07C1340 482.489 1343.58 486.07 1348 486.07ZM1349.5 582.07L1349.5 478.07L1346.5 478.07L1346.5 582.07L1349.5 582.07Z" fill="#F2F2F2"/>
<path d="M1134.47 779.57C1135.3 779.57 1135.97 778.899 1135.97 778.07C1135.97 777.242 1135.3 776.57 1134.47 776.57L1134.47 779.57ZM986.683 778.07C986.683 773.652 983.101 770.07 978.683 770.07C974.265 770.07 970.683 773.652 970.683 778.07C970.683 782.489 974.265 786.07 978.683 786.07C983.101 786.07 986.683 782.489 986.683 778.07ZM1134.47 776.57L978.683 776.57L978.683 779.57L1134.47 779.57L1134.47 776.57Z" fill="#F2F2F2"/>
</g>
<defs>
<filter id="filter0_d_125_83" x="43.5771" y="40.1412" width="375.333" height="345.929" filterUnits="userSpaceOnUse" color-interpolation-filters="sRGB">
<feFlood flood-opacity="0" result="BackgroundImageFix"/>
<feColorMatrix in="SourceAlpha" type="matrix" values="0 0 0 0 0 0 0 0 0 0 0 0 0 0 0 0 0 0 127 0" result="hardAlpha"/>
<feOffset dx="2" dy="2"/>
<feComposite in2="hardAlpha" operator="out"/>
<feColorMatrix type="matrix" values="0 0 0 0 0.0196078 0 0 0 0 0.513726 0 0 0 0 0.94902 0 0 0 1 0"/>
<feBlend mode="normal" in2="BackgroundImageFix" result="effect1_dropShadow_125_83"/>
<feBlend mode="normal" in="SourceGraphic" in2="effect1_dropShadow_125_83" result="shape"/>
</filter>
<filter id="filter1_d_125_83" x="21.7886" y="20.0703" width="317.593" height="327" filterUnits="userSpaceOnUse" color-interpolation-filters="sRGB">
<feFlood flood-opacity="0" result="BackgroundImageFix"/>
<feColorMatrix in="SourceAlpha" type="matrix" values="0 0 0 0 0 0 0 0 0 0 0 0 0 0 0 0 0 0 127 0" result="hardAlpha"/>
<feOffset dx="2" dy="2"/>
<feComposite in2="hardAlpha" operator="out"/>
<feColorMatrix type="matrix" values="0 0 0 0 0.0196078 0 0 0 0 0.513726 0 0 0 0 0.94902 0 0 0 1 0"/>
<feBlend mode="normal" in2="BackgroundImageFix" result="effect1_dropShadow_125_83"/>
<feBlend mode="normal" in="SourceGraphic" in2="effect1_dropShadow_125_83" result="shape"/>
</filter>
<filter id="filter2_d_125_83" x="0" y="0.0703049" width="387.317" height="318" filterUnits="userSpaceOnUse" color-interpolation-filters="sRGB">
<feFlood flood-opacity="0" result="BackgroundImageFix"/>
<feColorMatrix in="SourceAlpha" type="matrix" values="0 0 0 0 0 0 0 0 0 0 0 0 0 0 0 0 0 0 127 0" result="hardAlpha"/>
<feOffset dx="2" dy="2"/>
<feComposite in2="hardAlpha" operator="out"/>
<feColorMatrix type="matrix" values="0 0 0 0 0.0196078 0 0 0 0 0.513726 0 0 0 0 0.94902 0 0 0 1 0"/>
<feBlend mode="normal" in2="BackgroundImageFix" result="effect1_dropShadow_125_83"/>
<feBlend mode="normal" in="SourceGraphic" in2="effect1_dropShadow_125_83" result="shape"/>
</filter>
<filter id="filter3_d_125_83" x="939.089" y="402.07" width="375.333" height="345.929" filterUnits="userSpaceOnUse" color-interpolation-filters="sRGB">
<feFlood flood-opacity="0" result="BackgroundImageFix"/>
<feColorMatrix in="SourceAlpha" type="matrix" values="0 0 0 0 0 0 0 0 0 0 0 0 0 0 0 0 0 0 127 0" result="hardAlpha"/>
<feOffset dx="2" dy="2"/>
<feComposite in2="hardAlpha" operator="out"/>
<feColorMatrix type="matrix" values="0 0 0 0 0.74902 0 0 0 0 0.0156863 0 0 0 0 0.286275 0 0 0 1 0"/>
<feBlend mode="normal" in2="BackgroundImageFix" result="effect1_dropShadow_125_83"/>
<feBlend mode="normal" in="SourceGraphic" in2="effect1_dropShadow_125_83" result="shape"/>
</filter>
<filter id="filter4_d_125_83" x="1018.62" y="441.07" width="317.593" height="327" filterUnits="userSpaceOnUse" color-interpolation-filters="sRGB">
<feFlood flood-opacity="0" result="BackgroundImageFix"/>
<feColorMatrix in="SourceAlpha" type="matrix" values="0 0 0 0 0 0 0 0 0 0 0 0 0 0 0 0 0 0 127 0" result="hardAlpha"/>
<feOffset dx="2" dy="2"/>
<feComposite in2="hardAlpha" operator="out"/>
<feColorMatrix type="matrix" values="0 0 0 0 0.74902 0 0 0 0 0.0156863 0 0 0 0 0.286275 0 0 0 1 0"/>
<feBlend mode="normal" in2="BackgroundImageFix" result="effect1_dropShadow_125_83"/>
<feBlend mode="normal" in="SourceGraphic" in2="effect1_dropShadow_125_83" result="shape"/>
</filter>
<filter id="filter5_d_125_83" x="970.683" y="470.07" width="387.317" height="318" filterUnits="userSpaceOnUse" color-interpolation-filters="sRGB">
<feFlood flood-opacity="0" result="BackgroundImageFix"/>
<feColorMatrix in="SourceAlpha" type="matrix" values="0 0 0 0 0 0 0 0 0 0 0 0 0 0 0 0 0 0 127 0" result="hardAlpha"/>
<feOffset dx="2" dy="2"/>
<feComposite in2="hardAlpha" operator="out"/>
<feColorMatrix type="matrix" values="0 0 0 0 0.74902 0 0 0 0 0.0156863 0 0 0 0 0.286275 0 0 0 1 0"/>
<feBlend mode="normal" in2="BackgroundImageFix" result="effect1_dropShadow_125_83"/>
<feBlend mode="normal" in="SourceGraphic" in2="effect1_dropShadow_125_83" result="shape"/>
</filter>
<linearGradient id="paint0_linear_125_83" x1="73.3657" y1="68.0703" x2="1227.56" y2="804.396" gradientUnits="userSpaceOnUse">
<stop stop-color="#0583F2"/>
<stop offset="1" stop-color="#BF0449"/>
</linearGradient>
</defs>
</svg>
