<svg width="52" height="40" viewBox="0 0 52 40" fill="none" xmlns="http://www.w3.org/2000/svg">
<path d="M19.2 32C19.2 34.1333 18.9333 35.7333 18.4 36.8H16C15.7899 36.8 15.5818 36.8414 15.3877 36.9218C15.1936 37.0022 15.0172 37.1201 14.8686 37.2686C14.7201 37.4172 14.6022 37.5936 14.5218 37.7877C14.4414 37.9818 14.4 38.1899 14.4 38.4C14.4 38.6101 14.4414 38.8182 14.5218 39.0123C14.6022 39.2064 14.7201 39.3828 14.8686 39.5314C15.0172 39.6799 15.1936 39.7978 15.3877 39.8782C15.5818 39.9586 15.7899 40 16 40H35.2C35.4101 40 35.6182 39.9586 35.8123 39.8782C36.0064 39.7978 36.1828 39.6799 36.3314 39.5314C36.4799 39.3828 36.5978 39.2064 36.6782 39.0123C36.7586 38.8182 36.8 38.6101 36.8 38.4C36.8 38.1899 36.7586 37.9818 36.6782 37.7877C36.5978 37.5936 36.4799 37.4172 36.3314 37.2686C36.1828 37.1201 36.0064 37.0022 35.8123 36.9218C35.6182 36.8414 35.4101 36.8 35.2 36.8H32.8C32.2667 35.7333 32 34.1333 32 32H44.8C51.2 32 51.2 25.6 51.2 25.6V6.4C51.2 0 44.8 0 44.8 0H6.4C0 0 0 6.4 0 6.4V25.6C0 32 6.4 32 6.4 32H19.2Z" fill="#0583F2"/>
</svg>
