<svg width="43" height="60" viewBox="0 0 43 60" fill="none" xmlns="http://www.w3.org/2000/svg">
<path d="M21.5 0L27.7895 3.24064L34.7919 4.30001L37.9633 10.6L43 15.5501L41.8476 22.5001L43 29.4532L37.9633 34.4032L34.7919 40.7033L27.7895 41.7626L21.5 45.0001L15.2105 41.7626L8.20812 40.7033L5.03666 34.4032L0 29.4532L1.1524 22.5001L0 15.5501L5.03666 10.6L8.20812 4.30001L15.2105 3.24064L21.5 0Z" fill="#979797"/>
<path d="M18.43 29C18.154 29 17.914 28.898 17.71 28.694C17.506 28.49 17.404 28.25 17.404 27.974V27.56C17.404 26.888 17.674 26.342 18.214 25.922C20.23 24.338 21.562 23.132 22.21 22.304C22.87 21.476 23.2 20.666 23.2 19.874C23.2 18.77 22.588 18.218 21.364 18.218C20.62 18.218 19.708 18.422 18.628 18.83C18.4 18.914 18.184 18.89 17.98 18.758C17.776 18.626 17.674 18.44 17.674 18.2V17.444C17.674 17.132 17.764 16.856 17.944 16.616C18.124 16.364 18.364 16.196 18.664 16.112C19.756 15.824 20.806 15.68 21.814 15.68C23.266 15.68 24.382 16.028 25.162 16.724C25.954 17.408 26.35 18.362 26.35 19.586C26.35 20.642 26.014 21.65 25.342 22.61C24.682 23.558 23.386 24.848 21.454 26.48C21.442 26.492 21.436 26.504 21.436 26.516C21.436 26.528 21.442 26.534 21.454 26.534H25.396C25.672 26.534 25.906 26.636 26.098 26.84C26.302 27.044 26.404 27.284 26.404 27.56V27.974C26.404 28.25 26.302 28.49 26.098 28.694C25.906 28.898 25.672 29 25.396 29H18.43Z" fill="white"/>
<path d="M6.42773 44.2312V60L21.5 56.2499L36.5723 60V44.228L28.9671 45.3749L21.5 49.2218L14.0298 45.3749L6.42773 44.228V44.2312Z" fill="#979797"/>
</svg>
