<svg width="20" height="22" viewBox="0 0 20 22" fill="none" xmlns="http://www.w3.org/2000/svg">
<path d="M15.2765 4.1344C14.5193 3.29394 14.0641 2.19805 14.0641 1H13.1153M15.2765 4.1344C15.9666 4.90063 16.9009 5.45788 17.9649 5.67608C18.2956 5.74574 18.6406 5.78293 19 5.78293V9.2191C17.1598 9.2191 15.4536 8.64801 14.0639 7.68211V14.6707C14.0639 18.1627 11.131 21 7.53198 21C5.64856 21 3.94728 20.2198 2.75399 18.98C1.66614 17.847 1 16.3331 1 14.6707C1 11.2298 3.84665 8.42509 7.37381 8.35079M15.2765 4.1344C15.2581 4.12276 15.2397 4.11101 15.2214 4.09914M5.11669 16.3517C4.76206 15.8781 4.55119 15.2977 4.55119 14.6661C4.55119 13.0734 5.88825 11.7778 7.53206 11.7778C7.83876 11.7778 8.13585 11.8288 8.41381 11.9124V8.40192C8.12626 8.36473 7.83396 8.34149 7.53206 8.34149C7.47931 8.34149 7.05469 8.36884 7.00197 8.36884M13.1102 1H10.5128L10.508 14.7775C10.4505 16.3192 9.13735 17.5591 7.53198 17.5591C6.53515 17.5591 5.65814 17.0808 5.11182 16.3564" stroke="#F2F2F2" stroke-width="2" stroke-linejoin="round"/>
</svg>
