<svg width="54" height="41" viewBox="0 0 54 41" fill="none" xmlns="http://www.w3.org/2000/svg">
<path d="M26.6594 4.71833C32.8511 4.71833 38.4122 6.85721 42.1594 10.6989C45.2427 11.0995 48.1514 12.3585 50.5538 14.3322C46.3511 5.49888 37.6427 0.559998 26.6594 0.559998C15.8261 0.559998 7.05942 5.49333 2.80664 14.2989C5.00937 12.5016 7.63685 11.3002 10.4372 10.81C14.1122 6.79888 19.9094 4.71833 26.6594 4.71833Z" fill="#0583F2"/>
<path d="M39.9917 40.56C36.5235 40.5637 33.1911 39.212 30.7056 36.7933L30.7 36.785C30.413 36.5693 30.105 36.3832 29.7806 36.2294C28.8029 35.7757 27.7361 35.547 26.6584 35.56C25.5828 35.5473 24.518 35.7751 23.5417 36.2266C23.2153 36.3811 22.9054 36.5681 22.6167 36.785L22.6111 36.7933C21.0438 38.3133 19.1271 39.4251 17.0295 40.0309C14.9319 40.6368 12.7176 40.7181 10.5812 40.2678C8.44476 39.8175 6.45166 38.8493 4.77703 37.4484C3.10241 36.0474 1.79752 34.2566 0.977046 32.2333C0.156575 30.21 -0.154362 28.0161 0.071563 25.8445C0.297488 23.6728 1.05336 21.5899 2.27275 19.7788C3.49213 17.9677 5.1377 16.4838 7.06484 15.4576C8.99198 14.4314 11.1417 13.8942 13.325 13.8933H39.9917C43.5279 13.8933 46.9193 15.2981 49.4198 17.7985C51.9203 20.299 53.325 23.6904 53.325 27.2266C53.325 30.7629 51.9203 34.1542 49.4198 36.6547C46.9193 39.1552 43.5279 40.56 39.9917 40.56Z" fill="#0583F2"/>
</svg>
