<svg width="25" height="20" viewBox="0 0 25 20" fill="none" xmlns="http://www.w3.org/2000/svg">
<path fill-rule="evenodd" clip-rule="evenodd" d="M9.89197 4.59025C9.56958 4.39373 9.17349 4.39515 8.85232 4.59395C8.53116 4.79275 8.3335 5.15888 8.3335 5.55496V14.4438C8.3335 14.84 8.53116 15.2061 8.85232 15.4048C9.17349 15.6036 9.56958 15.6051 9.89197 15.4085L17.1836 10.9641C17.5082 10.7663 17.7085 10.3982 17.7085 9.9994C17.7085 9.60062 17.5082 9.23251 17.1836 9.03473L9.89197 4.59025ZM14.5672 9.9994L10.4168 12.5292V7.4696L14.5672 9.9994Z" fill="#F2F2F2"/>
<path fill-rule="evenodd" clip-rule="evenodd" d="M0 10C0 5.83363 0 3.75044 0.994703 2.29008C1.31595 1.81844 1.70479 1.40368 2.14695 1.06101C3.51604 6.62274e-08 5.46903 0 9.375 0H15.625C19.5309 0 21.484 6.62274e-08 22.853 1.06101C23.2952 1.40368 23.6841 1.81844 24.0053 2.29008C25 3.75044 25 5.83363 25 10C25 14.1663 25 16.2496 24.0053 17.7099C23.6841 18.1816 23.2952 18.5963 22.853 18.939C21.484 20 19.5309 20 15.625 20H9.375C5.46903 20 3.51604 20 2.14695 18.939C1.70479 18.5963 1.31595 18.1816 0.994703 17.7099C0 16.2496 0 14.1663 0 10ZM9.375 2.22222H15.625C17.6244 2.22222 18.9566 2.22528 19.9659 2.34192C20.9364 2.45407 21.3583 2.64942 21.6285 2.85883C21.8937 3.06443 22.1271 3.31329 22.3199 3.59627C22.5161 3.8845 22.6993 4.33459 22.8045 5.36966C22.9139 6.4463 22.9167 7.86733 22.9167 10C22.9167 12.1327 22.9139 13.5537 22.8045 14.6303C22.6993 15.6654 22.5161 16.1156 22.3199 16.4038C22.1271 16.6867 21.8937 16.9356 21.6285 17.1412C21.3583 17.3506 20.9364 17.5459 19.9659 17.6581C18.9566 17.7748 17.6244 17.7778 15.625 17.7778H9.375C7.3756 17.7778 6.04341 17.7748 5.03405 17.6581C4.06368 17.5459 3.64172 17.3506 3.3715 17.1412C3.10621 16.9356 2.87291 16.6867 2.68016 16.4038C2.48383 16.1156 2.30069 15.6654 2.19555 14.6303C2.0862 13.5537 2.08333 12.1327 2.08333 10C2.08333 7.86733 2.0862 6.4463 2.19555 5.36966C2.30069 4.33459 2.48383 3.8845 2.68016 3.59627C2.87291 3.31329 3.10621 3.06443 3.3715 2.85883C3.64172 2.64942 4.06368 2.45407 5.03405 2.34192C6.04341 2.22528 7.3756 2.22222 9.375 2.22222Z" fill="#F2F2F2"/>
</svg>
